<?xml version="1.0" encoding="UTF-8"?>
<svg xmlns="http://www.w3.org/2000/svg" version="1.1" xmlns:xlink="http://www.w3.org/1999/xlink" viewBox="0 0 1920 1080">
  <defs>
    <style>
      .cls-1 {
        fill: url(#linear-gradient-61);
      }

      .cls-2 {
        fill: url(#linear-gradient-15);
      }

      .cls-3 {
        fill: url(#linear-gradient-13);
      }

      .cls-4 {
        fill: url(#linear-gradient-28);
      }

      .cls-5 {
        fill: url(#linear-gradient-65);
      }

      .cls-6 {
        fill: url(#linear-gradient-69);
      }

      .cls-7 {
        fill: url(#linear-gradient-53);
      }

      .cls-8 {
        fill: url(#linear-gradient-42);
      }

      .cls-9 {
        fill: url(#linear-gradient-46);
      }

      .cls-10 {
        fill: url(#linear-gradient-70);
      }

      .cls-11 {
        fill: url(#linear-gradient-60);
      }

      .cls-12 {
        fill: url(#linear-gradient-93);
      }

      .cls-13 {
        fill: url(#linear-gradient-2);
      }

      .cls-14 {
        fill: url(#linear-gradient-87);
      }

      .cls-15 {
        fill: url(#linear-gradient-64);
      }

      .cls-16 {
        fill: url(#linear-gradient-56);
      }

      .cls-17 {
        fill: url(#linear-gradient-43);
      }

      .cls-18 {
        fill: url(#linear-gradient-25);
      }

      .cls-19 {
        fill: url(#linear-gradient-82);
      }

      .cls-20 {
        fill: url(#linear-gradient-10);
      }

      .cls-21 {
        fill: url(#linear-gradient-12);
      }

      .cls-22 {
        fill: url(#linear-gradient-40);
      }

      .cls-23 {
        fill: url(#linear-gradient-27);
      }

      .cls-24 {
        fill: url(#linear-gradient-68);
      }

      .cls-25 {
        fill: url(#linear-gradient-37);
      }

      .cls-26 {
        fill: url(#linear-gradient-75);
      }

      .cls-27 {
        fill: url(#linear-gradient-55);
      }

      .cls-28 {
        fill: url(#linear-gradient-39);
      }

      .cls-29 {
        fill: url(#linear-gradient-89);
      }

      .cls-30 {
        fill: url(#linear-gradient-52);
      }

      .cls-31 {
        fill: url(#linear-gradient-58);
      }

      .cls-32 {
        fill: url(#linear-gradient-47);
      }

      .cls-33 {
        fill: url(#linear-gradient-26);
      }

      .cls-34 {
        fill: url(#linear-gradient-74);
      }

      .cls-35 {
        fill: url(#linear-gradient-72);
      }

      .cls-36 {
        fill: url(#linear-gradient-4);
      }

      .cls-37 {
        fill: url(#linear-gradient-35);
      }

      .cls-38 {
        fill: url(#linear-gradient-30);
      }

      .cls-39 {
        fill: url(#linear-gradient-76);
      }

      .cls-40 {
        fill: url(#linear-gradient-73);
      }

      .cls-41 {
        fill: url(#linear-gradient-71);
      }

      .cls-42 {
        fill: url(#linear-gradient-44);
      }

      .cls-43 {
        fill: url(#linear-gradient-49);
      }

      .cls-44 {
        fill: url(#linear-gradient-3);
      }

      .cls-45 {
        fill: url(#linear-gradient-34);
      }

      .cls-46 {
        fill: url(#linear-gradient-5);
      }

      .cls-47 {
        fill: url(#linear-gradient-38);
      }

      .cls-48 {
        fill: url(#linear-gradient-91);
      }

      .cls-49 {
        fill: url(#linear-gradient-22);
      }

      .cls-50 {
        fill: url(#linear-gradient-24);
      }

      .cls-51 {
        fill: url(#linear-gradient-54);
      }

      .cls-52 {
        fill: url(#linear-gradient-92);
      }

      .cls-53 {
        fill: url(#linear-gradient-90);
      }

      .cls-54 {
        fill: url(#linear-gradient-33);
      }

      .cls-55 {
        fill: url(#linear-gradient-79);
      }

      .cls-56 {
        fill: url(#linear-gradient-78);
      }

      .cls-57 {
        fill: url(#linear-gradient-51);
      }

      .cls-58 {
        fill: url(#linear-gradient-8);
      }

      .cls-59 {
        fill: url(#linear-gradient-66);
      }

      .cls-60 {
        fill: url(#linear-gradient-57);
      }

      .cls-61 {
        fill: url(#linear-gradient-77);
      }

      .cls-62 {
        fill: url(#linear-gradient-88);
      }

      .cls-63 {
        fill: url(#linear-gradient-14);
      }

      .cls-64 {
        fill: url(#linear-gradient-62);
      }

      .cls-65 {
        fill: url(#linear-gradient-29);
      }

      .cls-66 {
        fill: url(#linear-gradient-20);
      }

      .cls-67 {
        fill: url(#linear-gradient-67);
      }

      .cls-68 {
        fill: url(#linear-gradient-17);
      }

      .cls-69 {
        fill: url(#linear-gradient-50);
      }

      .cls-70 {
        fill: url(#linear-gradient-7);
      }

      .cls-71 {
        fill: url(#linear-gradient-9);
      }

      .cls-72 {
        fill: url(#linear-gradient-59);
      }

      .cls-73 {
        fill: url(#linear-gradient-11);
      }

      .cls-74 {
        fill: url(#linear-gradient-19);
      }

      .cls-75 {
        fill: url(#linear-gradient-80);
      }

      .cls-76 {
        fill: url(#linear-gradient-6);
      }

      .cls-77 {
        fill: url(#linear-gradient-83);
      }

      .cls-78 {
        fill: url(#linear-gradient-36);
      }

      .cls-79 {
        fill: url(#linear-gradient-21);
      }

      .cls-80 {
        fill: url(#linear-gradient-45);
      }

      .cls-81 {
        fill: url(#linear-gradient-85);
      }

      .cls-82 {
        fill: url(#linear-gradient-81);
      }

      .cls-83 {
        fill: url(#linear-gradient-84);
      }

      .cls-84 {
        fill: url(#linear-gradient-48);
      }

      .cls-85 {
        fill: url(#linear-gradient-32);
      }

      .cls-86 {
        fill: url(#linear-gradient-86);
      }

      .cls-87 {
        fill: url(#linear-gradient-41);
      }

      .cls-88 {
        fill: url(#linear-gradient-16);
      }

      .cls-89 {
        fill: url(#linear-gradient);
      }

      .cls-90 {
        fill: url(#linear-gradient-23);
      }

      .cls-91 {
        fill: url(#linear-gradient-31);
      }

      .cls-92 {
        fill: url(#linear-gradient-63);
      }

      .cls-93 {
        fill: url(#linear-gradient-18);
      }
    </style>
    <linearGradient id="linear-gradient" x1="1074.5" y1="529" x2="1133.75" y2="529" gradientUnits="userSpaceOnUse">
      <stop offset="0" stop-color="#9300e9"/>
      <stop offset="1" stop-color="#e14dff"/>
    </linearGradient>
    <linearGradient id="linear-gradient-2" x1="1134.5" y1="513.15" x2="1183.1" y2="513.15" gradientUnits="userSpaceOnUse">
      <stop offset="0" stop-color="#1b35a7"/>
      <stop offset="1" stop-color="#4f6bdb"/>
    </linearGradient>
    <linearGradient id="linear-gradient-3" x1="871.3" y1="257" x2="960.7" y2="257" gradientUnits="userSpaceOnUse">
      <stop offset="0" stop-color="#4aebe6"/>
      <stop offset="1" stop-color="#adffff"/>
    </linearGradient>
    <linearGradient id="linear-gradient-4" x1="1183.1" y1="455.73" x2="1245.5" y2="455.73" xlink:href="#linear-gradient-3"/>
    <linearGradient id="linear-gradient-5" x1="1145.5" y1="308.61" x2="1198.24" y2="308.61" xlink:href="#linear-gradient-3"/>
    <linearGradient id="linear-gradient-6" x1="1172.5" y1="507.5" x2="1245.5" y2="507.5" gradientUnits="userSpaceOnUse">
      <stop offset="0" stop-color="#000"/>
      <stop offset="1" stop-color="#333"/>
    </linearGradient>
    <linearGradient id="linear-gradient-7" x1="1102.5" y1="257.5" x2="1197.5" y2="257.5" xlink:href="#linear-gradient"/>
    <linearGradient id="linear-gradient-8" x1="908.5" y1="269.49" x2="1102.5" y2="269.49" gradientUnits="userSpaceOnUse">
      <stop offset="0" stop-color="#072193"/>
      <stop offset="1" stop-color="#5975e5"/>
    </linearGradient>
    <linearGradient id="linear-gradient-9" x1="1217.2" y1="435.5" x2="1266.5" y2="435.5" xlink:href="#linear-gradient-6"/>
    <linearGradient id="linear-gradient-10" x1="994.5" y1="248.96" x2="1055.26" y2="248.96" xlink:href="#linear-gradient-6"/>
    <linearGradient id="linear-gradient-11" x1="994.5" y1="243.94" x2="1112.57" y2="243.94" xlink:href="#linear-gradient-6"/>
    <linearGradient id="linear-gradient-12" x1="1055.26" y1="257.5" x2="1112.57" y2="257.5" xlink:href="#linear-gradient-6"/>
    <linearGradient id="linear-gradient-13" x1="1004.34" y1="275.1" x2="1038.77" y2="275.1" xlink:href="#linear-gradient-8"/>
    <linearGradient id="linear-gradient-14" x1="1209.68" y1="367.21" x2="1266.5" y2="367.21" xlink:href="#linear-gradient-8"/>
    <linearGradient id="linear-gradient-15" x1="1214.93" y1="321.5" x2="1262.5" y2="321.5" xlink:href="#linear-gradient-6"/>
    <linearGradient id="linear-gradient-16" x1="1202.5" y1="394.53" x2="1266.5" y2="394.53" xlink:href="#linear-gradient-6"/>
    <linearGradient id="linear-gradient-17" x1="1197.79" y1="311.71" x2="1225.5" y2="311.71" xlink:href="#linear-gradient-3"/>
    <linearGradient id="linear-gradient-18" x1="1102.5" y1="272.5" x2="1197.5" y2="272.5" xlink:href="#linear-gradient-6"/>
    <linearGradient id="linear-gradient-19" x1="642.38" y1="496" x2="680.5" y2="496" xlink:href="#linear-gradient-3"/>
    <linearGradient id="linear-gradient-20" x1="778.5" y1="274" x2="862.5" y2="274" xlink:href="#linear-gradient-6"/>
    <linearGradient id="linear-gradient-21" x1="720.5" y1="722.5" x2="796.81" y2="722.5" xlink:href="#linear-gradient-6"/>
    <linearGradient id="linear-gradient-22" x1="790.5" y1="731.32" x2="871.3" y2="731.32" xlink:href="#linear-gradient-6"/>
    <linearGradient id="linear-gradient-23" x1="732.5" y1="766.32" x2="807.72" y2="766.32" xlink:href="#linear-gradient-6"/>
    <linearGradient id="linear-gradient-24" x1="871.3" y1="749.94" x2="963.47" y2="749.94" xlink:href="#linear-gradient-6"/>
    <linearGradient id="linear-gradient-25" x1="796.81" y1="753.94" x2="871.3" y2="753.94" xlink:href="#linear-gradient-8"/>
    <linearGradient id="linear-gradient-26" x1="644.5" y1="722.62" x2="732.5" y2="722.62" xlink:href="#linear-gradient-3"/>
    <linearGradient id="linear-gradient-27" x1="606.5" y1="551.42" x2="679.5" y2="551.42" xlink:href="#linear-gradient-6"/>
    <linearGradient id="linear-gradient-28" x1="611.5" y1="641.5" x2="679.5" y2="641.5" xlink:href="#linear-gradient"/>
    <linearGradient id="linear-gradient-29" x1="606.5" y1="566.87" x2="679.5" y2="566.87" xlink:href="#linear-gradient-8"/>
    <linearGradient id="linear-gradient-30" x1="644.5" y1="647" x2="702.6" y2="647" xlink:href="#linear-gradient-8"/>
    <linearGradient id="linear-gradient-31" x1="680.5" y1="421.5" x2="720.5" y2="421.5" xlink:href="#linear-gradient-6"/>
    <linearGradient id="linear-gradient-32" x1="742.5" y1="287" x2="816.5" y2="287" xlink:href="#linear-gradient-8"/>
    <linearGradient id="linear-gradient-33" x1="698.22" y1="336.47" x2="747.5" y2="336.47" xlink:href="#linear-gradient"/>
    <linearGradient id="linear-gradient-34" x1="708.5" y1="297.33" x2="744.31" y2="297.33" xlink:href="#linear-gradient-6"/>
    <linearGradient id="linear-gradient-35" x1="692.76" y1="373.81" x2="747.5" y2="373.81" xlink:href="#linear-gradient-6"/>
    <linearGradient id="linear-gradient-36" x1="744.31" y1="332.83" x2="816.5" y2="332.83" xlink:href="#linear-gradient-3"/>
    <linearGradient id="linear-gradient-37" x1="963.47" y1="712.28" x2="1016.5" y2="712.28" xlink:href="#linear-gradient-3"/>
    <linearGradient id="linear-gradient-38" x1="654.5" y1="380.81" x2="698.22" y2="380.81" xlink:href="#linear-gradient-8"/>
    <linearGradient id="linear-gradient-39" x1="973.23" y1="659.5" x2="1016.5" y2="659.5" xlink:href="#linear-gradient"/>
    <linearGradient id="linear-gradient-40" x1="871.3" y1="711.01" x2="973.23" y2="711.01" xlink:href="#linear-gradient-6"/>
    <linearGradient id="linear-gradient-41" x1="620.5" y1="443.75" x2="680.5" y2="443.75" xlink:href="#linear-gradient-8"/>
    <linearGradient id="linear-gradient-42" x1="941.5" y1="657.77" x2="980.5" y2="657.77" xlink:href="#linear-gradient-8"/>
    <linearGradient id="linear-gradient-43" x1="816.5" y1="274" x2="895.5" y2="274" xlink:href="#linear-gradient-6"/>
    <linearGradient id="linear-gradient-44" x1="845" y1="558.16" x2="1068.9" y2="558.16" xlink:href="#linear-gradient-6"/>
    <linearGradient id="linear-gradient-45" x1="1068.9" y1="721.71" x2="1151" y2="721.71" xlink:href="#linear-gradient"/>
    <linearGradient id="linear-gradient-46" x1="1068.9" y1="754.5" x2="1151" y2="754.5" xlink:href="#linear-gradient-8"/>
    <linearGradient id="linear-gradient-47" x1="1151" y1="754.5" x2="1239" y2="754.5" gradientUnits="userSpaceOnUse">
      <stop offset="0" stop-color="#333"/>
      <stop offset="1" stop-color="#555"/>
    </linearGradient>
    <linearGradient id="linear-gradient-48" x1="937.17" y1="381.98" x2="1007" y2="381.98" xlink:href="#linear-gradient-8"/>
    <linearGradient id="linear-gradient-49" x1="1140.15" y1="754.5" x2="1239" y2="754.5" xlink:href="#linear-gradient"/>
    <linearGradient id="linear-gradient-50" x1="1042.03" y1="693.76" x2="1111" y2="693.76" xlink:href="#linear-gradient-3"/>
    <linearGradient id="linear-gradient-51" x1="958.19" y1="598.82" x2="1042.03" y2="598.82" xlink:href="#linear-gradient-6"/>
    <linearGradient id="linear-gradient-52" x1="1019.53" y1="626.77" x2="1111" y2="626.77" xlink:href="#linear-gradient-8"/>
    <linearGradient id="linear-gradient-53" x1="882.5" y1="435.79" x2="933.61" y2="435.79" xlink:href="#linear-gradient-6"/>
    <linearGradient id="linear-gradient-54" x1="928" y1="457" x2="972.06" y2="457" xlink:href="#linear-gradient-3"/>
    <linearGradient id="linear-gradient-55" x1="934.1" y1="518.58" x2="1019.53" y2="518.58" xlink:href="#linear-gradient"/>
    <linearGradient id="linear-gradient-56" x1="1173.56" y1="660.33" x2="1232.6" y2="660.33" xlink:href="#linear-gradient-6"/>
    <linearGradient id="linear-gradient-57" x1="1232.6" y1="751.08" x2="1279.74" y2="751.08" xlink:href="#linear-gradient-47"/>
    <linearGradient id="linear-gradient-58" x1="1173.56" y1="729.08" x2="1250.45" y2="729.08" xlink:href="#linear-gradient-6"/>
    <linearGradient id="linear-gradient-59" x1="1133.75" y1="607.08" x2="1173.56" y2="607.08" xlink:href="#linear-gradient-8"/>
    <linearGradient id="linear-gradient-60" x1="1250.45" y1="768.66" x2="1320.91" y2="768.66" xlink:href="#linear-gradient-8"/>
    <linearGradient id="linear-gradient-61" x1="1295.95" y1="760.17" x2="1326.5" y2="760.17" xlink:href="#linear-gradient-47"/>
    <linearGradient id="linear-gradient-62" x1="1074.5" y1="560.22" x2="1133.75" y2="560.22" xlink:href="#linear-gradient-3"/>
    <linearGradient id="linear-gradient-63" x1="1104.5" y1="609.55" x2="1173.56" y2="609.55" xlink:href="#linear-gradient-6"/>
    <linearGradient id="linear-gradient-64" x1="1279.74" y1="760.17" x2="1320.91" y2="760.17" xlink:href="#linear-gradient-47"/>
    <linearGradient id="linear-gradient-65" x1="994.5" y1="515.24" x2="1083.47" y2="515.24" xlink:href="#linear-gradient-2"/>
    <linearGradient id="linear-gradient-66" x1="1074.5" y1="525.5" x2="1125.5" y2="525.5" xlink:href="#linear-gradient-6"/>
    <linearGradient id="linear-gradient-67" x1="1157" y1="607.08" x2="1201.23" y2="607.08" xlink:href="#linear-gradient"/>
    <linearGradient id="linear-gradient-68" x1="1201.23" y1="677.91" x2="1295.95" y2="677.91" xlink:href="#linear-gradient-8"/>
    <linearGradient id="linear-gradient-69" x1="734.5" y1="591" x2="751.3" y2="591" xlink:href="#linear-gradient-8"/>
    <linearGradient id="linear-gradient-70" x1="837.5" y1="641.5" x2="871.3" y2="641.5" xlink:href="#linear-gradient-47"/>
    <linearGradient id="linear-gradient-71" x1="866.5" y1="612.14" x2="979.5" y2="612.14" xlink:href="#linear-gradient-8"/>
    <linearGradient id="linear-gradient-72" x1="806.43" y1="628.62" x2="842.5" y2="628.62" xlink:href="#linear-gradient-3"/>
    <linearGradient id="linear-gradient-73" x1="856.5" y1="580.14" x2="938.5" y2="580.14" xlink:href="#linear-gradient-6"/>
    <linearGradient id="linear-gradient-74" x1="795.5" y1="528.46" x2="830.34" y2="528.46" xlink:href="#linear-gradient-8"/>
    <linearGradient id="linear-gradient-75" x1="817.19" y1="529.4" x2="856.5" y2="529.4" xlink:href="#linear-gradient"/>
    <linearGradient id="linear-gradient-76" x1="848.5" y1="497.5" x2="890.5" y2="497.5" xlink:href="#linear-gradient-6"/>
    <linearGradient id="linear-gradient-77" x1="779.55" y1="630.54" x2="796.5" y2="630.54" xlink:href="#linear-gradient-6"/>
    <linearGradient id="linear-gradient-78" x1="907.81" y1="598.5" x2="979.5" y2="598.5" xlink:href="#linear-gradient"/>
    <linearGradient id="linear-gradient-79" x1="821" y1="594.39" x2="856.5" y2="594.39" xlink:href="#linear-gradient"/>
    <linearGradient id="linear-gradient-80" x1="842.5" y1="599" x2="907.81" y2="599" xlink:href="#linear-gradient-3"/>
    <linearGradient id="linear-gradient-81" x1="817.19" y1="497.5" x2="856.5" y2="497.5" xlink:href="#linear-gradient-3"/>
    <linearGradient id="linear-gradient-82" x1="734.62" y1="591" x2="763.41" y2="591" xlink:href="#linear-gradient-3"/>
    <linearGradient id="linear-gradient-83" x1="751.3" y1="610.6" x2="780.57" y2="610.6" xlink:href="#linear-gradient-8"/>
    <linearGradient id="linear-gradient-84" x1="781.12" y1="572.76" x2="803.64" y2="572.76" xlink:href="#linear-gradient-8"/>
    <linearGradient id="linear-gradient-85" x1="772" y1="551.05" x2="782.28" y2="551.05" xlink:href="#linear-gradient-6"/>
    <linearGradient id="linear-gradient-86" x1="882.5" y1="369" x2="967.22" y2="369" xlink:href="#linear-gradient-8"/>
    <linearGradient id="linear-gradient-87" x1="818" y1="372.5" x2="882.5" y2="372.5" xlink:href="#linear-gradient-8"/>
    <linearGradient id="linear-gradient-88" x1="967.22" y1="369" x2="1007" y2="369" xlink:href="#linear-gradient-6"/>
    <linearGradient id="linear-gradient-89" x1="-125.5" y1="201" x2="-56.5" y2="201" xlink:href="#linear-gradient-6"/>
    <linearGradient id="linear-gradient-90" x1="-125.5" y1="291" x2="-56.5" y2="291" xlink:href="#linear-gradient-8"/>
    <linearGradient id="linear-gradient-91" x1="-125.5" y1="388" x2="-56.5" y2="388" xlink:href="#linear-gradient"/>
    <linearGradient id="linear-gradient-92" x1="-125.5" y1="491" x2="-56.5" y2="491" xlink:href="#linear-gradient-3"/>
    <linearGradient id="linear-gradient-93" x1="-126" y1="588" x2="-57" y2="588" gradientUnits="userSpaceOnUse">
      <stop offset="0" stop-color="#ff9d95"/>
      <stop offset="1" stop-color="#ffbbc9"/>
    </linearGradient>
  </defs>
  <!-- Generator: Adobe Illustrator 28.7.1, SVG Export Plug-In . SVG Version: 1.2.0 Build 142)  -->
  <g>
    <g id="Layer_1">
      <polygon class="cls-89" points="1125.5 500.5 1074.5 557.5 1133.75 544.93 1125.5 500.5"/>
      <polygon points="1202.5 399.5 1192.5 439.5 1217.2 425.15 1202.5 399.5"/>
      <polygon points="1198.5 357.5 1202.5 399.5 1209.68 363.91 1198.5 357.5"/>
      <polygon points="1167.5 469.5 1134.5 495.5 1183.1 486.31 1192.5 439.5 1167.5 469.5"/>
      <polygon class="cls-13" points="1172.32 540 1183.1 486.31 1134.5 495.5 1172.32 540"/>
      <polygon points="1004.34 262.18 994.5 226.5 960.7 250.47 1004.34 262.18"/>
      <polygon points="1102.5 288.5 1145.5 297.5 1158.65 287.13 1102.5 288.5"/>
      <polygon class="cls-44" points="960.7 250.47 871.3 226.5 908.5 287.5 960.7 250.47"/>
      <polygon points="1214.93 337.91 1198.24 331.04 1198.5 357.5 1209.68 363.91 1214.93 337.91"/>
      <polygon points="1177.5 322.5 1198.5 357.5 1198.24 331.04 1177.5 322.5"/>
      <polygon class="cls-36" points="1192.5 439.5 1183.1 486.31 1245.5 474.5 1217.2 425.15 1192.5 439.5"/>
      <polygon points="994.5 226.5 880.5 226.5 871.3 226.5 960.7 250.47 994.5 226.5"/>
      <polygon class="cls-46" points="1197.79 286.18 1158.65 287.13 1145.5 297.5 1177.5 322.5 1198.24 331.04 1197.79 286.18"/>
      <polygon class="cls-76" points="1172.5 540.5 1191.5 530.5 1222.5 504.5 1245.5 474.5 1183.1 486.31 1172.5 540.5"/>
      <polygon class="cls-70" points="1197.5 256.5 1160.5 238.5 1112.57 226.5 1102.5 288.5 1197.5 256.5"/>
      <polygon class="cls-58" points="1011.46 288.03 1004.34 262.18 960.7 250.47 908.5 287.5 1102.5 288.5 1038.77 271.41 1011.46 288.03"/>
      <polygon class="cls-71" points="1245.5 474.5 1258.5 435.5 1266.5 396.5 1217.2 425.15 1245.5 474.5"/>
      <polygon points="1038.77 271.41 1102.5 288.5 1055.26 261.38 1038.77 271.41"/>
      <polygon class="cls-20" points="1038.77 271.41 1055.26 261.38 994.5 226.5 1004.34 262.18 1038.77 271.41"/>
      <polygon class="cls-73" points="1112.57 226.5 994.5 226.5 1055.26 261.38 1112.57 226.5"/>
      <polygon class="cls-21" points="1102.5 288.5 1112.57 226.5 1055.26 261.38 1102.5 288.5"/>
      <polygon class="cls-3" points="1038.77 271.41 1004.34 262.18 1011.46 288.03 1038.77 271.41"/>
      <polygon class="cls-63" points="1209.68 363.91 1266.5 396.5 1262.5 357.5 1214.93 337.91 1209.68 363.91"/>
      <polygon class="cls-2" points="1262.5 357.5 1246.5 320.5 1225.5 285.5 1214.93 337.91 1262.5 357.5"/>
      <polygon class="cls-88" points="1202.5 399.5 1217.2 425.15 1266.5 396.5 1209.68 363.91 1202.5 399.5"/>
      <polygon class="cls-68" points="1198.24 331.04 1214.93 337.91 1225.5 285.5 1197.79 286.18 1198.24 331.04"/>
      <polygon class="cls-93" points="1158.65 287.13 1197.5 256.5 1102.5 288.5 1158.65 287.13"/>
      <polygon points="1197.79 286.18 1197.5 256.5 1158.65 287.13 1197.79 286.18"/>
      <polygon points="1225.5 285.5 1197.5 256.5 1197.79 286.18 1225.5 285.5"/>
      <polygon class="cls-74" points="663.5 535.5 669.5 495.5 680.5 456.5 642.38 489.33 663.5 535.5"/>
      <polygon points="620.5 441.5 610.5 481.5 606.5 520.23 642.38 489.33 620.5 441.5"/>
      <polygon class="cls-66" points="862.5 236.5 816.5 245.5 778.5 262.5 816.5 311.5 862.5 236.5"/>
      <polygon points="662.86 398.16 680.5 456.5 692.76 392.11 662.86 398.16"/>
      <polygon points="702.6 679.74 732.5 765.5 720.5 679.5 702.6 679.74"/>
      <polygon class="cls-79" points="790.5 718.5 752.5 704.5 720.5 679.5 732.5 765.5 796.81 744.13 790.5 718.5"/>
      <polygon class="cls-49" points="871.3 719.38 831.5 723.5 790.5 718.5 796.81 744.13 871.3 719.38"/>
      <polygon class="cls-90" points="732.5 765.5 770.5 779.5 807.72 788.5 796.81 744.13 732.5 765.5"/>
      <polygon points="807.72 788.5 849.5 788.5 891.5 780.5 871.3 719.38 807.72 788.5"/>
      <polygon class="cls-50" points="891.5 780.5 927.5 763.5 963.47 743.53 871.3 719.38 891.5 780.5"/>
      <polygon class="cls-18" points="796.81 744.13 807.72 788.5 871.3 719.38 796.81 744.13"/>
      <polygon class="cls-33" points="644.5 680.5 667.5 713.5 697.5 740.5 732.5 765.5 702.6 679.74 644.5 680.5"/>
      <polygon class="cls-23" points="666.5 575.5 663.5 535.5 642.38 489.33 606.5 520.23 679.5 613.5 666.5 575.5"/>
      <polygon class="cls-4" points="611.5 602.5 624.5 643.5 644.5 680.5 679.5 613.5 611.5 602.5"/>
      <polygon class="cls-65" points="606.5 520.23 606.5 559.5 611.5 602.5 679.5 613.5 606.5 520.23"/>
      <polygon class="cls-38" points="679.5 613.5 644.5 680.5 702.6 679.74 679.5 613.5"/>
      <polygon class="cls-91" points="680.5 456.5 698.5 420.5 720.5 386.5 692.76 392.11 680.5 456.5"/>
      <polygon points="720.5 679.5 698.5 647.5 679.5 613.5 702.6 679.74 720.5 679.5"/>
      <polygon points="708.5 309.5 680.5 339.5 654.5 370.5 698.22 363.45 708.5 309.5"/>
      <polygon class="cls-85" points="816.5 311.5 778.5 262.5 742.5 284.5 744.31 310.16 816.5 311.5"/>
      <polygon class="cls-54" points="747.5 355.5 744.31 310.16 708.5 309.5 698.22 363.45 747.5 355.5"/>
      <polygon class="cls-45" points="742.5 284.5 708.5 309.5 744.31 310.16 742.5 284.5"/>
      <polygon class="cls-37" points="692.76 392.11 720.5 386.5 747.5 355.5 698.22 363.45 692.76 392.11"/>
      <polygon class="cls-78" points="747.5 355.5 780.5 330.5 816.5 311.5 744.31 310.16 747.5 355.5"/>
      <polygon points="654.5 370.5 636.5 403.5 662.86 398.16 654.5 370.5"/>
      <polygon class="cls-25" points="963.47 743.53 992.5 714.5 1016.5 684.5 973.23 681.04 963.47 743.53"/>
      <polygon class="cls-47" points="692.76 392.11 698.22 363.45 654.5 370.5 662.86 398.16 692.76 392.11"/>
      <polygon class="cls-28" points="973.23 681.04 1016.5 684.5 980.5 634.5 973.23 681.04"/>
      <polygon class="cls-22" points="941.5 678.5 907.5 702.5 871.3 719.38 963.47 743.53 973.23 681.04 941.5 678.5"/>
      <polygon class="cls-87" points="680.5 456.5 662.86 398.16 636.5 403.5 620.5 441.5 642.38 489.33 680.5 456.5"/>
      <polygon class="cls-8" points="980.5 634.5 966.9 648.15 941.5 678.5 973.23 681.04 980.5 634.5"/>
      <polygon class="cls-17" points="855.5 298.5 895.5 291.5 862.5 236.5 816.5 311.5 855.5 298.5"/>
      <polygon points="915.72 346 818 346 882.5 370.9 915.72 346"/>
      <polygon class="cls-42" points="958.19 574.13 1019.53 555.55 1019.53 555.55 934.1 501 933.61 500.69 936.13 540 933.61 500.69 894.64 475.8 882.5 370.9 845 399 1068.9 745.43 1042.03 642.09 958.19 574.13"/>
      <polygon class="cls-80" points="1111 698 1068.9 745.43 1151 725 1111 698"/>
      <polygon points="1006.11 346 915.72 346 967.22 371.95 1006.11 346"/>
      <polygon class="cls-9" points="1068.9 745.43 1105 769 1140.15 784 1151 725 1068.9 745.43"/>
      <polygon class="cls-32" points="1151 725 1239 784 1194.5 725.5 1151 725"/>
      <polygon class="cls-84" points="937.17 392 1007 392 967.22 371.95 937.17 392"/>
      <polygon points="800.06 363.21 800.06 383.25 811.5 395.38 845 399 801.76 361.59 800.06 363.21"/>
      <polygon class="cls-43" points="1140.15 784 1239 784 1151 725 1140.15 784"/>
      <polygon class="cls-69" points="1042.03 642.09 1068.9 745.43 1111 698 1042.03 642.09"/>
      <polygon points="1023 380.06 1023 360 1006.11 346 1007 392 1023 380.06"/>
      <polygon points="928 413 937.17 392 882.5 370.9 928 413"/>
      <polygon class="cls-57" points="1042.03 642.09 1019.53 555.55 1019.53 555.55 958.19 574.13 1042.03 642.09"/>
      <polygon points="801.76 361.59 845 399 818 346 801.76 361.59"/>
      <polygon class="cls-30" points="1111 698 1019.53 555.55 1042.03 642.09 1111 698"/>
      <polygon class="cls-7" points="882.5 370.9 894.64 475.8 933.61 500.69 928 413 882.5 370.9 882.5 370.9"/>
      <polygon class="cls-51" points="934.1 501 972.06 481.61 928 413 933.61 500.69 934.1 501"/>
      <polygon class="cls-27" points="1019.53 555.55 972.06 481.61 934.1 501 1019.53 555.55"/>
      <polygon class="cls-16" points="1201.23 602.5 1173.56 674.16 1232.6 718.17 1201.23 602.5"/>
      <polygon class="cls-60" points="1232.6 718.17 1250.45 784 1279.74 753.31 1232.6 718.17"/>
      <polygon class="cls-31" points="1173.56 674.16 1250.45 784 1232.6 718.17 1173.56 674.16"/>
      <polygon class="cls-72" points="1133.75 544.93 1173.56 674.16 1157 540 1133.75 544.93"/>
      <polygon class="cls-11" points="1250.45 784 1320.91 784 1279.74 753.31 1250.45 784"/>
      <polygon class="cls-1" points="1295.95 736.33 1320.91 784 1326.5 779.5 1295.95 736.33"/>
      <polygon class="cls-64" points="1074.5 557.5 1104.5 575.5 1133.75 544.93 1074.5 557.5"/>
      <polygon class="cls-92" points="1104.5 575.5 1173.56 674.16 1133.75 544.93 1104.5 575.5"/>
      <polygon class="cls-15" points="1295.95 736.33 1279.74 753.31 1320.91 784 1295.95 736.33 1295.95 736.33"/>
      <polygon class="cls-5" points="1083.47 493.5 994.5 493.5 1048.84 536.98 1083.47 493.5"/>
      <polygon class="cls-59" points="1083.47 493.5 1074.5 557.5 1125.5 500.5 1083.47 493.5"/>
      <polygon points="1032.5 557.5 1074.5 557.5 1048.84 536.98 1032.5 557.5"/>
      <polygon points="1048.84 536.98 1074.5 557.5 1083.47 493.5 1048.84 536.98"/>
      <polygon points="994.5 493.5 1032.5 557.5 1048.84 536.98 994.5 493.5"/>
      <polygon class="cls-67" points="1157 540 1173.56 674.16 1201.23 602.5 1157 540"/>
      <polygon points="1157 540 1125.5 500.5 1133.75 544.93 1157 540"/>
      <polygon class="cls-24" points="1279.74 753.31 1295.95 736.33 1201.23 602.5 1232.6 718.17 1279.74 753.31"/>
      <polygon class="cls-6" points="734.5 604.5 751.3 604.5 734.62 577.5 734.5 604.5"/>
      <polygon points="796.5 665.5 823.47 665.5 803.17 651.2 796.5 665.5"/>
      <polygon points="806.43 644.23 803.17 651.2 823.47 665.5 823.5 649.5 837.5 640.5 838.43 636.92 806.43 644.23"/>
      <polygon points="796.5 646.5 796.5 665.5 803.17 651.2 796.5 646.5"/>
      <polygon class="cls-10" points="837.5 640.5 853.5 652.5 871.3 635.98 866.5 630.5 838.43 636.92 837.5 640.5"/>
      <polygon class="cls-41" points="866.5 630.5 979.5 630.5 907.81 593.78 866.5 630.5"/>
      <polygon points="803.64 613 792.89 614.58 796.5 646.5 821 613 803.64 613"/>
      <polygon class="cls-35" points="838.43 636.92 842.5 621.27 821 613 806.43 644.23 838.43 636.92"/>
      <polygon points="821 613 796.5 646.5 806.43 644.23 821 613"/>
      <polygon points="806.43 644.23 796.5 646.5 803.17 651.2 806.43 644.23"/>
      <polygon class="cls-40" points="938.5 566.5 856.5 567.5 907.81 593.78 938.5 566.5"/>
      <polygon points="833.5 583.5 833.5 600.5 856.5 567.5 830.34 565.61 833.5 583.5"/>
      <polygon class="cls-34" points="801.93 563.56 830.34 565.61 817.19 491.31 795.5 535.5 801.93 563.56"/>
      <polygon class="cls-26" points="856.5 567.5 817.19 491.31 830.34 565.61 856.5 567.5"/>
      <polygon class="cls-39" points="890.5 486.5 848.5 427.5 856.5 567.5 890.5 486.5"/>
      <polygon class="cls-61" points="780.17 616.46 779.55 638.75 796.5 646.5 792.89 614.58 780.17 616.46"/>
      <polygon class="cls-56" points="979.5 630.5 938.5 566.5 907.81 593.78 979.5 630.5"/>
      <polygon class="cls-55" points="821 613 842.5 621.27 856.5 567.5 833.5 600.5 821 613"/>
      <polygon class="cls-75" points="866.5 630.5 907.81 593.78 856.5 567.5 842.5 621.27 866.5 630.5"/>
      <polygon points="838.43 636.92 866.5 630.5 842.5 621.27 838.43 636.92"/>
      <polygon points="780.57 601.71 780.17 616.46 792.89 614.58 791.32 600.68 780.57 601.71"/>
      <polygon points="791.32 583.43 781.12 581.91 780.57 601.71 791.32 600.68 791.32 583.43"/>
      <polygon points="772 561.4 763.41 579.27 781.12 581.91 781.67 562.1 772 561.4"/>
      <polygon points="792.89 614.58 803.64 613 791.32 600.68 792.89 614.58"/>
      <polygon points="748.5 634.5 765.5 652.5 759.5 619.5 748.5 634.5"/>
      <polygon class="cls-82" points="848.5 427.5 817.19 491.31 856.5 567.5 848.5 427.5"/>
      <polygon points="764.5 528.5 748.5 544.5 759.5 560.5 782.28 540 764.5 528.5"/>
      <polygon points="821 571 833.5 583.5 830.34 565.61 801.93 563.56 803.64 571 821 571"/>
      <polygon points="759.5 619.5 765.5 652.5 779.55 638.75 780.17 616.46 759.5 619.5"/>
      <polygon points="772 561.4 759.5 560.5 751.5 577.5 763.41 579.27 772 561.4"/>
      <polygon points="781.12 581.91 763.41 579.27 751.3 604.5 780.57 601.71 781.12 581.91"/>
      <polygon class="cls-19" points="751.5 577.5 734.62 577.5 751.3 604.5 763.41 579.27 751.5 577.5"/>
      <polygon class="cls-77" points="780.57 601.71 751.3 604.5 759.5 619.5 780.17 616.46 780.57 601.71"/>
      <polygon points="782.28 540 759.5 560.5 772 561.4 782.28 540"/>
      <polygon points="801.93 563.56 795.5 535.5 782.28 540 781.67 562.1 801.93 563.56"/>
      <polygon class="cls-83" points="781.12 581.91 791.32 583.43 803.64 571 801.93 563.56 781.67 562.1 781.12 581.91"/>
      <polygon class="cls-81" points="781.67 562.1 782.28 540 772 561.4 781.67 562.1"/>
      <polygon class="cls-86" points="882.5 370.9 937.17 392 967.22 371.95 915.72 346 882.5 370.9 882.5 370.9"/>
      <polygon class="cls-14" points="818 346 845 399 882.5 370.9 818 346"/>
      <polygon class="cls-62" points="1007 392 1006.11 346 967.22 371.95 1007 392"/>
      <rect class="cls-29" x="-125.5" y="166.5" width="69" height="69"/>
      <rect class="cls-53" x="-125.5" y="256.5" width="69" height="69"/>
      <rect class="cls-48" x="-125.5" y="353.5" width="69" height="69"/>
      <rect class="cls-52" x="-125.5" y="456.5" width="69" height="69"/>
      <rect class="cls-12" x="-126" y="553" width="69" height="70"/>
    </g>
  </g>
</svg>