<?xml version="1.0" encoding="UTF-8"?>
<svg version="1.1" xmlns="http://www.w3.org/2000/svg" width="256" height="256">
<path d="M0 0 C3.5625 -0.25 3.5625 -0.25 7 0 C8 1 8 1 8.11352539 2.94946289 C8.10828857 3.7821167 8.10305176 4.61477051 8.09765625 5.47265625 C8.09443359 6.37177734 8.09121094 7.27089844 8.08789062 8.19726562 C8.07951172 9.14279297 8.07113281 10.08832031 8.0625 11.0625 C8.05798828 12.01189453 8.05347656 12.96128906 8.04882812 13.93945312 C8.0370011 16.29303065 8.02052025 18.64648477 8 21 C9.98 21.33 11.96 21.66 14 22 C14.99 18.535 14.99 18.535 16 15 C20.8333472 14.91666643 25.23692563 15.04738513 30 16 C30.185625 14.14375 30.185625 14.14375 30.375 12.25 C30.69467869 9.05321308 31.51829318 6.83863833 33 4 C50.39763863 5.19842749 67.69248544 6.86385116 85 9 C85.495 10.485 85.495 10.485 86 12 C86.66 12 87.32 12 88 12 C88.01458252 12.61520508 88.02916504 13.23041016 88.04418945 13.86425781 C88.11880577 16.66012854 88.2154198 19.45482287 88.3125 22.25 C88.33505859 23.21808594 88.35761719 24.18617187 88.38085938 25.18359375 C88.41630859 26.11816406 88.45175781 27.05273438 88.48828125 28.015625 C88.51446533 28.87446289 88.54064941 29.73330078 88.56762695 30.61816406 C89.07984424 33.43984212 90.24449228 34.7786796 92 37 C91.93359375 39.62109375 91.93359375 39.62109375 91.4375 42.4375 C90.73954717 46.91506676 90.73954717 46.91506676 93 50.75 C93.99 51.86375 93.99 51.86375 95 53 C94.75 56.625 94.75 56.625 94 60 C93.89153477 63.088128 93.89153477 63.088128 94.75 66.375 C95 70 95 70 93.5 72.875 C90.35712647 75.5464425 88.01871999 75.47905482 84 76 C82.6830333 77.88370471 82.6830333 77.88370471 82 80 C79 82 79 82 75.5 81.8125 C70.86005089 80.73536896 70.86005089 80.73536896 69 78 C69 77.34 69 76.68 69 76 C67.9275 75.938125 66.855 75.87625 65.75 75.8125 C62 75 62 75 59.5 72.875 C57.5625377 69.16153059 58.05803202 67.00336393 59 63 C54.71 63 50.42 63 46 63 C46.2475 64.051875 46.495 65.10375 46.75 66.1875 C47 70 47 70 45.5 72.875 C42.35712647 75.5464425 40.01871999 75.47905482 36 76 C34.6830333 77.88370471 34.6830333 77.88370471 34 80 C31 82 31 82 27.5 81.8125 C22.86005089 80.73536896 22.86005089 80.73536896 21 78 C21 77.34 21 76.68 21 76 C19.9275 75.938125 18.855 75.87625 17.75 75.8125 C14 75 14 75 11.5 72.875 C9.54627291 69.13035642 10.09898635 67.05456144 11 63 C11.10846523 59.911872 11.10846523 59.911872 10.25 56.625 C10 53 10 53 11.8125 50.0625 C14 48 14 48 16 48 C15.34 47.01 14.68 46.02 14 45 C14.31627097 41.45776514 14.87548091 38.37355726 16 35 C15.01 35 14.02 35 13 35 C13 35.99 13 36.98 13 38 C12.34 38 11.68 38 11 38 C10.938125 38.78375 10.87625 39.5675 10.8125 40.375 C10 43 10 43 8 44.3125 C1.92044794 45.70573068 -4.30203242 45.77949638 -10 43 C-12.44475064 40.11074924 -12.23870252 36.91002684 -12.20947266 33.23291016 C-11.84971821 29.39804512 -10.4547009 26.03846166 -9 22.5 C-8.71382813 21.77296875 -8.42765625 21.0459375 -8.1328125 20.296875 C-7.43395426 18.52643412 -6.71868368 16.76248618 -6 15 C-5.34 15 -4.68 15 -4 15 C-3.87882812 14.16855469 -3.75765625 13.33710937 -3.6328125 12.48046875 C-3.46523437 11.39378906 -3.29765625 10.30710937 -3.125 9.1875 C-2.96257812 8.10855469 -2.80015625 7.02960938 -2.6328125 5.91796875 C-2 3 -2 3 0 0 Z M40 10 C38.515 13.465 38.515 13.465 37 17 C38.93742341 17.02703381 40.87495479 17.04641125 42.8125 17.0625 C44.43091797 17.07990234 44.43091797 17.07990234 46.08203125 17.09765625 C49.06512169 17.13624766 49.06512169 17.13624766 52 16 C55.80632342 15.71273031 58.22405652 15.55744222 61.58203125 17.47265625 C66.19975384 19.53611857 70.3711685 19.56258267 75.375 19.6875 C76.30183594 19.72166016 77.22867188 19.75582031 78.18359375 19.79101562 C80.45560812 19.87299552 82.72726104 19.94230494 85 20 C85 18.02 85 16.04 85 14 C80.03856868 13.42382884 75.07642204 12.85442584 70.11352539 12.29101562 C68.4287471 12.09881965 66.74417081 11.90484359 65.05981445 11.70898438 C62.62503445 11.42618919 60.18957612 11.15001285 57.75390625 10.875 C57.01290176 10.78750488 56.27189728 10.70000977 55.50843811 10.60986328 C50.31126596 10.03185456 45.2295067 9.92765058 40 10 Z M17 20 C16.67 21.32 16.34 22.64 16 24 C20.95 24.99 20.95 24.99 26 26 C26.33 25.01 26.66 24.02 27 23 C22.18790099 20.70954986 22.18790099 20.70954986 17 20 Z M34 21 C36.98646769 22.99097846 39.59687262 23.94124926 43 25 C43 24.01 43 23.02 43 22 C40.03 21.67 37.06 21.34 34 21 Z M46 23 C46 23.99 46 24.98 46 26 C50.14093698 26.20970559 50.14093698 26.20970559 54 25 C54 24.34 54 23.68 54 23 C51.36 23 48.72 23 46 23 Z M56 23 C56 23.66 56 24.32 56 25 C56.66 25 57.32 25 58 25 C58 25.66 58 26.32 58 27 C59.98 27 61.96 27 64 27 C64 25.68 64 24.36 64 23 C61.36 23 58.72 23 56 23 Z M68 24 C70.68092691 26.68092691 72.39167363 26.38670257 76.125 26.625 C77.76855469 26.73714844 77.76855469 26.73714844 79.4453125 26.8515625 C80.28835937 26.90054688 81.13140625 26.94953125 82 27 C82.33 26.34 82.66 25.68 83 25 C79.68929162 23.99890485 76.69915231 23.89643866 73.25 23.9375 C72.26515625 23.94652344 71.2803125 23.95554687 70.265625 23.96484375 C69.14414063 23.98224609 69.14414063 23.98224609 68 24 Z M34 25 C34.33 26.65 34.66 28.3 35 30 C37.31 30.66 39.62 31.32 42 32 C42 30.35 42 28.7 42 27 C39.36 26.34 36.72 25.68 34 25 Z M69 28 C69 28.99 69 29.98 69 31 C70.98 30.67 72.96 30.34 75 30 C75 29.67 75 29.34 75 29 C72.03 28.505 72.03 28.505 69 28 Z M84 28 C84 28.66 84 29.32 84 30 C82.89140625 30.23074219 81.7828125 30.46148437 80.640625 30.69921875 C79.17685477 31.02762874 77.71332517 31.35711257 76.25 31.6875 C75.52039063 31.83638672 74.79078125 31.98527344 74.0390625 32.13867188 C69.0879474 33.28643038 66.86339441 34.57726309 64 39 C61.8125 41.375 61.8125 41.375 59 43 C50.14775278 43.14753745 41.37992106 39.60730035 33 37 C31.91201801 40.95978504 31.91201801 40.95978504 33.5 44.6875 C36.53266777 47.49271769 39.05085281 47.94219272 43 49 C43.5775 49.680625 44.155 50.36125 44.75 51.0625 C48.04124041 53.89662369 51.20050754 53.98343035 55.453125 54.2421875 C58.23798332 54.25470191 58.23798332 54.25470191 60.25 51.6875 C61.11625 50.3571875 61.11625 50.3571875 62 49 C64.33010909 48.32215008 66.66359824 47.65583207 69 47 C70.70586575 45.37347684 72.3777546 43.70993434 74 42 C74.65355469 41.87753906 75.30710938 41.75507812 75.98046875 41.62890625 C78.19242622 41.16667981 78.19242622 41.16667981 79.4140625 38.96875 C79.81367188 38.1540625 80.21328125 37.339375 80.625 36.5 C82.81473684 32.09263158 82.81473684 32.09263158 85 31 C84.505 29.515 84.505 29.515 84 28 Z M45 29 C45.33 30.65 45.66 32.3 46 34 C47.32 34 48.64 34 50 34 C50.66 33.34 51.32 32.68 52 32 C52 31.01 52 30.02 52 29 C49.69 29 47.38 29 45 29 Z M10 30 C10.33 30.99 10.66 31.98 11 33 C11.33 32.01 11.66 31.02 12 30 C11.34 30 10.68 30 10 30 Z M58 31 C58.99 32.32 59.98 33.64 61 35 C62.32 34.34 63.64 33.68 65 33 C65 32.34 65 31.68 65 31 C62.69 31 60.38 31 58 31 Z M20 33 C19.67 34.32 19.34 35.64 19 37 C20.98 37.99 22.96 38.98 25 40 C25 38.02 25 36.04 25 34 C23.35 33.67 21.7 33.34 20 33 Z M53 34 C52.67 34.99 52.34 35.98 52 37 C52.66 37 53.32 37 54 37 C53.67 36.01 53.34 35.02 53 34 Z M56 34 C56 35.65 56 37.3 56 39 C56.99 39 57.98 39 59 39 C58.34 37.35 57.68 35.7 57 34 C56.67 34 56.34 34 56 34 Z M84 37 C82.63881539 39.24195113 81.93861972 40.47826762 82.25 43.125 C82.93708233 45.1996952 82.93708233 45.1996952 85 47 C85.66 44.69 86.32 42.38 87 40 C86.01 39.01 85.02 38.02 84 37 Z M20 41 C20 42.32 20 43.64 20 45 C20.99 44.67 21.98 44.34 23 44 C22.01 43.01 21.02 42.02 20 41 Z M72.1875 45.375 C70.8033278 46.93368783 70.8033278 46.93368783 71 49 C74.63 49 78.26 49 82 49 C80.42163702 45.31622777 80.42163702 45.31622777 79 44 C76.07271007 43.69186422 74.57439555 43.56425165 72.1875 45.375 Z M32 46 C32 46.99 32 47.98 32 49 C32.66 49 33.32 49 34 49 C33.67 48.01 33.34 47.02 33 46 C32.67 46 32.34 46 32 46 Z M23 47 C24 49 24 49 24 49 Z M14.25 51.1875 C12.61459768 53.55883336 12.77141307 55.18076123 13 58 C13.99 58 14.98 58 16 58 C17.32 55.36 18.64 52.72 20 50 C16.19917293 49.62566572 16.19917293 49.62566572 14.25 51.1875 Z M37 50 C41 51 41 51 41 51 Z M64 50 C63.01 51.485 63.01 51.485 62 53 C63.65 53 65.3 53 67 53 C67.33 52.01 67.66 51.02 68 50 C66.68 50 65.36 50 64 50 Z M88 50 C87.20643199 51.74671588 87.20643199 51.74671588 87 54 C88.35400645 56.72981832 88.35400645 56.72981832 90 59 C90.66 58.67 91.32 58.34 92 58 C92.33425735 55.62625139 92.33425735 55.62625139 92 53 C90.0995533 51.15684329 90.0995533 51.15684329 88 50 Z M41 55 C41 55.66 41 56.32 41 57 C41.99 57 42.98 57 44 57 C44 56.34 44 55.68 44 55 C43.01 55 42.02 55 41 55 Z M50 58 C50 58.33 50 58.66 50 59 C52.97 59 55.94 59 59 59 C58.67 58.34 58.34 57.68 58 57 C55.2716232 57 52.68345937 57.53331141 50 58 Z M14 64 C12.74323161 65.04703565 12.74323161 65.04703565 12.75 67.375 C12.79182879 70.00821728 12.79182879 70.00821728 14.25 71.875 C15.96204182 73.26322434 15.96204182 73.26322434 18.109375 72.5703125 C18.73328125 72.38210937 19.3571875 72.19390625 20 72 C19.19185349 70.66402348 18.37836819 69.331275 17.5625 68 C16.88380859 66.88625 16.88380859 66.88625 16.19140625 65.75 C15.60166016 64.88375 15.60166016 64.88375 15 64 C14.67 64 14.34 64 14 64 Z M42 64 C39.525 68.455 39.525 68.455 37 73 C41.86132495 72.50847518 41.86132495 72.50847518 44 70 C44.16687448 67.41645782 44.16687448 67.41645782 44 65 C43.34 64.67 42.68 64.34 42 64 Z M62 64 C60.74323161 65.04703565 60.74323161 65.04703565 60.75 67.375 C60.79182879 70.00821728 60.79182879 70.00821728 62.25 71.875 C63.96204182 73.26322434 63.96204182 73.26322434 66.109375 72.5703125 C66.73328125 72.38210937 67.3571875 72.19390625 68 72 C67.19185349 70.66402348 66.37836819 69.331275 65.5625 68 C64.88380859 66.88625 64.88380859 66.88625 64.19140625 65.75 C63.60166016 64.88375 63.60166016 64.88375 63 64 C62.67 64 62.34 64 62 64 Z M90 64 C87.525 68.455 87.525 68.455 85 73 C89.86132495 72.50847518 89.86132495 72.50847518 92 70 C92.16687448 67.41645782 92.16687448 67.41645782 92 65 C91.34 64.67 90.68 64.34 90 64 Z M23 74 C24.57836298 77.68377223 24.57836298 77.68377223 26 79 C28.92728993 79.30813578 30.42560445 79.43574835 32.8125 77.625 C34.1966722 76.06631217 34.1966722 76.06631217 34 74 C30.37 74 26.74 74 23 74 Z M71 74 C72.57836298 77.68377223 72.57836298 77.68377223 74 79 C76.92728993 79.30813578 78.42560445 79.43574835 80.8125 77.625 C82.1966722 76.06631217 82.1966722 76.06631217 82 74 C78.37 74 74.74 74 71 74 Z " fill="#000000" transform="translate(86,86)"/>
<path d="M0 0 C0.66 0 1.32 0 2 0 C2 2.64 2 5.28 2 8 C1.01 8.33 0.02 8.66 -1 9 C-1.66 8.67 -2.32 8.34 -3 8 C-3 7.34 -3 6.68 -3 6 C-2.01 6 -1.02 6 0 6 C0 4.02 0 2.04 0 0 Z " fill="#141414" transform="translate(140,117)"/>
<path d="M0 0 C2.9375 0.375 2.9375 0.375 6 1 C6.33 1.66 6.66 2.32 7 3 C4.69 3 2.38 3 0 3 C0 2.01 0 1.02 0 0 Z " fill="#141414" transform="translate(142,106)"/>
<path d="M0 0 C0 0.99 0 1.98 0 3 C-2.31 3 -4.62 3 -7 3 C-4.49955934 -0.00052879 -4.2621484 0 0 0 Z " fill="#141414" transform="translate(140,106)"/>
</svg>
