<svg id="svg" xmlns="http://www.w3.org/2000/svg" xmlns:xlink="http://www.w3.org/1999/xlink" width="400" height="315.1693667157585" viewBox="0, 0, 400,315.1693667157585"><g id="svgg"><path id="path0" d="M154.712 0.359 C 151.784 1.130,150.908 2.314,150.908 5.498 C 150.908 9.168,151.288 9.963,158.808 22.018 C 161.393 26.162,163.890 30.211,164.357 31.015 C 165.384 32.782,166.523 34.055,167.591 34.626 L 168.385 35.052 223.368 35.163 C 273.900 35.265,278.540 35.301,280.689 35.610 C 293.359 37.435,307.731 44.940,315.904 54.001 C 332.064 71.916,334.861 100.117,322.525 120.750 C 316.113 131.473,310.592 136.594,293.870 147.324 C 291.856 148.617,291.232 149.111,291.350 149.322 C 291.808 150.136,312.144 173.915,312.984 174.620 C 314.455 175.852,315.750 175.471,320.797 172.319 C 341.455 159.421,356.117 138.716,362.170 113.893 C 371.493 75.664,355.400 37.041,320.668 14.288 C 306.374 4.924,293.217 0.856,275.601 0.354 C 261.624 -0.044,156.226 -0.040,154.712 0.359 M138.635 6.809 C 117.237 10.596,92.661 21.118,73.990 34.486 C 72.726 35.391,71.635 36.132,71.565 36.132 C 71.392 36.132,66.694 39.828,63.230 42.690 C 17.781 80.237,-5.365 135.714,0.996 191.851 C 7.773 251.654,52.099 301.275,106.330 309.766 C 114.498 311.045,128.130 311.432,135.493 310.594 C 145.250 309.484,152.861 307.863,159.064 305.573 C 160.842 304.917,164.242 303.661,166.618 302.783 C 189.439 294.347,206.233 282.005,222.572 261.659 C 227.897 255.028,227.903 254.957,223.672 248.797 C 222.523 247.123,220.084 243.456,218.254 240.648 C 212.225 231.399,208.352 225.626,208.174 225.626 C 208.079 225.626,207.621 226.134,207.159 226.755 C 206.345 227.847,203.931 230.909,197.490 239.020 C 176.316 265.683,149.454 278.283,118.900 275.885 C 91.221 273.713,68.767 260.048,52.575 235.523 C 28.075 198.413,26.820 157.009,48.861 112.980 C 69.575 71.600,106.750 45.718,156.265 38.200 C 158.696 37.831,160.755 37.458,160.843 37.370 C 161.003 37.210,160.440 36.250,152.464 23.073 C 144.010 9.105,143.165 7.814,142.166 7.332 C 141.281 6.904,139.547 6.648,138.635 6.809 M117.624 67.255 C 102.418 70.343,101.411 90.720,116.249 95.059 C 117.573 95.446,118.337 95.501,123.810 95.609 L 129.897 95.729 130.977 96.260 C 132.726 97.120,133.402 98.015,139.767 107.904 C 143.103 113.088,150.457 124.487,156.109 133.235 C 167.353 150.639,174.404 161.599,181.439 172.607 C 183.958 176.549,186.788 180.967,187.727 182.425 C 188.666 183.883,194.603 193.162,200.921 203.044 C 227.731 244.980,244.528 271.174,246.507 274.129 C 254.817 286.539,264.464 295.291,276.485 301.326 C 287.353 306.782,291.382 308.172,298.675 308.981 C 301.321 309.274,350.515 309.453,350.515 309.170 C 350.515 309.110,350.130 308.469,349.660 307.746 C 349.189 307.023,348.656 306.166,348.474 305.842 C 348.293 305.518,347.887 304.855,347.572 304.369 C 347.256 303.883,346.682 302.955,346.294 302.307 C 345.907 301.659,345.230 300.555,344.790 299.853 C 344.350 299.151,343.323 297.472,342.508 296.122 C 340.214 292.320,336.819 287.205,333.516 282.570 C 328.315 275.273,328.230 275.219,323.167 276.085 C 305.510 279.103,288.297 272.308,277.673 258.125 C 276.021 255.919,262.872 235.751,237.473 196.465 C 218.234 166.708,214.801 161.370,206.223 147.865 C 192.186 125.767,186.473 116.869,181.296 109.044 C 178.691 105.105,178.378 103.601,179.480 100.311 C 180.961 95.891,182.617 93.563,184.913 92.675 L 186.058 92.233 204.026 92.213 C 220.423 92.196,222.088 92.165,223.073 91.857 C 234.962 88.146,234.472 72.016,222.339 67.675 L 220.619 67.059 169.759 67.028 C 128.314 67.002,118.664 67.044,117.624 67.255 M133.893 112.667 C 133.499 113.395,130.463 119.823,127.146 126.951 C 119.337 143.733,112.621 158.072,111.903 159.499 L 111.335 160.628 109.423 160.631 C 107.035 160.634,106.656 160.732,106.500 161.388 C 106.432 161.672,106.312 161.993,106.234 162.101 C 106.155 162.209,105.977 163.049,105.839 163.967 C 105.701 164.885,105.531 165.680,105.461 165.734 C 105.391 165.788,105.218 166.539,105.077 167.403 C 104.935 168.267,104.740 169.123,104.643 169.305 C 104.547 169.487,104.467 169.862,104.467 170.139 C 104.467 170.543,104.372 170.643,103.988 170.643 C 103.724 170.643,103.458 170.725,103.396 170.826 C 103.333 170.927,102.798 171.118,102.206 171.250 C 101.614 171.383,101.129 171.554,101.129 171.631 C 101.129 171.707,100.731 171.882,100.245 172.018 C 99.759 172.154,99.362 172.335,99.362 172.420 C 99.362 172.506,99.096 172.634,98.771 172.705 C 98.446 172.777,98.059 172.956,97.911 173.104 C 97.417 173.597,96.731 173.639,96.232 173.207 C 95.976 172.985,95.652 172.803,95.512 172.803 C 95.372 172.803,95.187 172.687,95.101 172.546 C 95.014 172.405,94.656 172.173,94.305 172.031 C 93.954 171.890,93.667 171.707,93.667 171.625 C 93.667 171.543,93.402 171.366,93.078 171.232 C 92.754 171.098,92.489 170.921,92.489 170.839 C 92.489 170.758,92.224 170.581,91.900 170.447 C 91.576 170.313,91.311 170.125,91.311 170.030 C 91.311 169.935,91.200 169.856,91.065 169.854 C 90.841 169.851,89.381 168.964,88.815 168.487 C 88.356 168.100,88.460 168.007,81.836 174.738 C 79.505 177.106,79.347 177.474,80.188 178.577 C 80.442 178.912,80.713 179.384,80.790 179.627 C 80.867 179.870,81.001 180.069,81.089 180.069 C 81.177 180.069,81.358 180.334,81.492 180.658 C 81.627 180.982,81.803 181.247,81.885 181.247 C 81.967 181.247,82.144 181.512,82.278 181.836 C 82.412 182.160,82.589 182.425,82.671 182.425 C 82.752 182.425,82.935 182.712,83.077 183.063 C 83.219 183.414,83.450 183.772,83.592 183.859 C 83.733 183.945,83.849 184.144,83.849 184.300 C 83.849 184.457,83.942 184.585,84.057 184.585 C 84.171 184.585,84.216 184.664,84.157 184.759 C 84.098 184.855,84.181 185.043,84.342 185.176 C 84.664 185.444,84.734 186.072,84.459 186.241 C 84.232 186.382,83.131 188.664,82.958 189.354 C 82.885 189.647,82.755 189.887,82.671 189.887 C 82.587 189.887,82.457 190.218,82.382 190.623 C 82.307 191.028,82.126 191.625,81.980 191.949 C 81.835 192.273,81.687 192.715,81.651 192.931 C 81.605 193.213,81.408 193.341,80.951 193.385 C 80.601 193.419,80.314 193.517,80.314 193.602 C 80.314 193.688,79.519 193.871,78.547 194.011 C 77.575 194.150,76.780 194.327,76.780 194.404 C 76.780 194.480,75.984 194.657,75.012 194.796 C 74.040 194.936,73.245 195.125,73.245 195.217 C 73.245 195.310,73.062 195.385,72.839 195.385 C 71.644 195.385,71.674 195.219,71.674 201.833 C 71.674 208.107,71.704 208.346,72.499 208.346 C 72.693 208.346,72.852 208.421,72.852 208.513 C 72.852 208.606,73.648 208.795,74.620 208.935 C 75.592 209.074,76.387 209.247,76.387 209.318 C 76.387 209.390,77.182 209.561,78.154 209.699 C 79.126 209.836,79.921 210.025,79.921 210.117 C 79.921 210.210,80.253 210.313,80.658 210.347 C 81.339 210.403,81.408 210.467,81.582 211.193 C 81.685 211.625,81.827 212.023,81.897 212.077 C 81.968 212.131,82.143 212.639,82.287 213.206 C 82.431 213.773,82.601 214.237,82.665 214.237 C 82.729 214.237,82.899 214.634,83.042 215.120 C 83.186 215.606,83.382 216.004,83.478 216.004 C 83.574 216.004,83.652 216.124,83.652 216.271 C 83.652 216.418,83.873 216.864,84.143 217.262 C 84.737 218.136,84.750 218.363,84.242 218.949 C 84.026 219.198,83.849 219.517,83.849 219.657 C 83.849 219.797,83.738 219.982,83.603 220.069 C 83.468 220.155,83.225 220.491,83.063 220.815 C 82.902 221.139,82.723 221.448,82.666 221.502 C 82.408 221.748,81.802 222.794,81.841 222.926 C 81.865 223.007,81.797 223.073,81.689 223.073 C 81.581 223.073,81.492 223.158,81.492 223.261 C 81.492 223.434,80.744 224.663,80.344 225.147 C 79.189 226.544,79.278 226.699,83.870 231.296 C 87.878 235.307,89.151 236.265,89.151 235.272 C 89.151 235.177,89.416 234.989,89.740 234.855 C 90.064 234.721,90.329 234.544,90.329 234.462 C 90.329 234.381,90.612 234.196,90.959 234.053 C 91.305 233.909,91.747 233.634,91.941 233.440 C 92.134 233.246,92.425 233.088,92.587 233.088 C 92.749 233.088,92.882 233.010,92.882 232.915 C 92.882 232.820,93.147 232.633,93.471 232.499 C 93.795 232.365,94.060 232.188,94.060 232.106 C 94.060 232.024,94.325 231.848,94.649 231.713 C 94.973 231.579,95.238 231.402,95.238 231.321 C 95.238 231.239,95.525 231.056,95.876 230.914 C 96.227 230.772,96.563 230.586,96.621 230.502 C 96.725 230.353,98.377 231.059,98.576 231.337 C 98.630 231.412,99.050 231.586,99.509 231.723 C 99.968 231.860,100.344 232.037,100.344 232.118 C 100.344 232.198,100.785 232.369,101.325 232.499 C 101.865 232.628,102.307 232.814,102.307 232.911 C 102.307 233.008,102.462 233.088,102.651 233.089 C 103.520 233.092,104.467 233.506,104.467 233.883 C 104.467 234.094,104.545 234.266,104.639 234.266 C 104.733 234.266,104.926 235.106,105.067 236.132 C 105.207 237.158,105.386 237.997,105.464 237.997 C 105.541 237.997,105.717 238.748,105.853 239.666 C 105.990 240.584,106.176 241.335,106.266 241.335 C 106.357 241.335,106.431 241.593,106.431 241.908 C 106.431 243.171,106.056 243.103,112.946 243.103 C 120.161 243.103,119.590 243.270,119.957 241.041 C 120.099 240.177,120.284 239.381,120.367 239.273 C 120.450 239.165,120.634 238.348,120.775 237.457 C 120.917 236.566,121.097 235.837,121.175 235.837 C 121.253 235.837,121.378 235.309,121.453 234.663 C 121.595 233.440,122.016 233.093,123.368 233.089 C 123.557 233.088,123.711 233.008,123.711 232.911 C 123.711 232.814,124.153 232.628,124.693 232.499 C 125.233 232.369,125.675 232.195,125.675 232.112 C 125.675 232.029,126.073 231.849,126.559 231.713 C 127.045 231.577,127.442 231.396,127.442 231.310 C 127.442 231.225,127.752 231.053,128.130 230.928 C 128.508 230.803,128.817 230.619,128.817 230.520 C 128.817 230.420,128.949 230.339,129.111 230.339 C 129.273 230.339,129.406 230.416,129.406 230.511 C 129.406 230.606,129.671 230.794,129.995 230.928 C 130.319 231.062,130.584 231.243,130.584 231.329 C 130.584 231.416,130.893 231.589,131.271 231.713 C 131.649 231.838,131.959 232.011,131.959 232.097 C 131.959 232.184,132.224 232.365,132.548 232.499 C 132.872 232.633,133.137 232.810,133.137 232.892 C 133.137 232.973,133.402 233.150,133.726 233.284 C 134.050 233.418,134.315 233.606,134.315 233.701 C 134.315 233.796,134.448 233.873,134.610 233.873 C 134.772 233.873,135.063 234.032,135.256 234.225 C 135.450 234.419,135.892 234.695,136.238 234.838 C 136.585 234.982,136.868 235.177,136.868 235.272 C 136.868 235.367,137.132 235.444,137.455 235.444 C 138.259 235.444,146.490 227.308,146.490 226.514 C 146.490 226.241,146.412 226.019,146.317 226.019 C 146.222 226.019,146.035 225.754,145.901 225.430 C 145.767 225.106,145.593 224.840,145.516 224.840 C 145.391 224.840,144.919 223.980,144.919 223.751 C 144.919 223.702,158.837 223.662,175.847 223.662 C 192.857 223.662,206.775 223.604,206.775 223.532 C 206.775 223.028,204.001 218.405,200.196 212.568 C 193.525 202.333,191.239 198.802,188.756 194.894 C 184.591 188.341,187.788 189.066,163.194 189.093 L 143.009 189.115 142.748 188.470 C 142.604 188.116,142.432 187.781,142.366 187.727 C 142.300 187.673,142.122 187.320,141.971 186.942 C 141.821 186.564,141.570 186.158,141.414 186.039 C 141.177 185.860,141.263 185.645,141.945 184.722 C 142.393 184.116,142.759 183.532,142.759 183.425 C 142.759 183.318,142.875 183.159,143.016 183.073 C 143.157 182.987,143.389 182.629,143.531 182.278 C 143.672 181.927,143.860 181.640,143.948 181.640 C 144.035 181.640,144.170 181.441,144.247 181.198 C 144.324 180.955,144.595 180.483,144.849 180.148 C 145.104 179.814,145.312 179.439,145.312 179.314 C 145.312 179.189,145.402 179.087,145.513 179.087 C 145.624 179.087,145.798 178.866,145.901 178.596 C 146.003 178.326,146.178 178.105,146.289 178.105 C 146.942 178.105,146.434 176.896,145.314 175.783 L 144.139 174.614 145.337 171.990 C 152.366 156.605,155.807 148.500,155.997 146.883 C 156.313 144.202,155.877 143.457,137.811 115.775 C 134.543 110.766,134.808 110.976,133.893 112.667 M225.282 148.012 C 215.342 148.059,214.237 148.095,214.237 148.376 C 214.237 148.999,215.931 151.918,219.103 156.763 C 225.926 167.183,227.932 170.373,231.226 176.043 C 234.411 181.526,237.040 182.748,245.164 182.521 C 259.607 182.118,270.250 186.951,279.329 198.036 C 283.759 203.444,347.697 292.944,351.295 298.773 C 352.629 300.933,353.914 303.009,354.152 303.387 C 354.787 304.398,355.993 306.331,356.970 307.904 L 357.828 309.286 376.312 309.233 L 394.796 309.180 396.026 308.612 C 399.309 307.096,399.576 304.067,396.560 302.545 C 396.162 302.344,394.813 300.646,392.447 297.367 C 384.479 286.324,378.460 277.897,369.483 265.218 C 364.274 257.860,356.035 246.230,351.174 239.372 C 337.847 220.572,327.744 206.233,318.310 192.734 C 306.819 176.290,305.137 174.120,299.760 168.803 C 284.017 153.237,268.173 147.622,240.808 147.912 C 238.344 147.938,231.357 147.983,225.282 148.012 M116.898 187.654 C 128.514 190.286,131.175 206.105,121.125 212.786 C 109.294 220.651,94.552 207.736,101.262 195.385 C 104.373 189.658,111.088 186.338,116.898 187.654 " stroke="none" fill="#000000" fill-rule="evenodd"></path></g></svg>