<?xml version="1.0" encoding="UTF-8"?>
<svg id="Layer_1" data-name="Layer 1" xmlns="http://www.w3.org/2000/svg" version="1.1" viewBox="0 0 641 641">
  <defs>
    <style>
      .cls-1 {
        fill: #000;
        stroke-width: 0px;
      }
    </style>
  </defs>
  <path className="cls-1" d="M193.5,482.2c-48.4-15.8-81.6-47.4-101.3-93.3-7.1-16.4-11.3-33.7-12.9-51.6-3.5-39.3,4-76.4,22.2-111.4,16.7-32.2,40.3-58.1,70-78.6,23.2-16,48.7-26.5,76.3-32,1.7-.3,4.8.2,5.5,1.3,7.4,11.6,14.4,23.5,22,36-4.8.8-9,1.3-13.1,2.1-65.5,12.6-111.1,49.9-133.7,112.6-16.3,45.3-12.1,89.6,15.9,130.1,18.7,27,44.4,43.5,77.4,46.6,34.3,3.3,63.5-8.9,87.7-32.9,6.9-6.9,12.6-15,18.8-22.6,1.5-1.8,2.8-3.6,4.6-6,2.6,3.9,4.8,7.3,7.1,10.7,4.6,7,9,14,13.8,20.8,2.1,3,2.4,5.4,0,8.4-17.1,22.3-37.4,40.5-63.7,51.4-6.7,2.8-13.5,5.1-21.5,8h162.1c-6.9-3.3-13.8-6.1-20.1-9.8-13.5-7.9-23.8-19.2-32.2-32.2-29-45.1-57.8-90.3-86.7-135.4-16.3-25.4-32.7-50.6-49-76-2.2-3.5-4.9-5.1-9-4.7-2.8.3-5.7,0-8.5,0-9.6-.3-17-7.2-17.5-16.4-.6-9.6,6-17.1,16-18.4,1.1-.1,2.3-.2,3.5-.2h117c11.6,0,19.9,10.2,16.8,20.5-2,6.6-7.2,10.4-14.7,10.4-12.3,0-24.7.2-37-.2-5.3-.2-8.2,1.8-10.2,6.6-1.8,4.3-3.6,7.6-.2,12.6,15.7,23.7,30.7,48,46.1,71.9,23.4,36.2,46.8,72.5,70.4,108.6,13.5,20.7,36.7,29.8,60.8,24.8,1.5-.3,4.2.7,5.1,1.9,5.5,7.5,11,15.1,15.7,23.1,2.8,4.8,6.3,6.3,12.1,5.1-2.1-3.2-3.9-6.3-5.9-9.2-26.8-37.5-53.5-75.1-80.6-112.5-11.2-15.4-26.4-23.9-45.9-22.3-7.4.6-11.9-1.5-15.6-8-5.6-10-12.2-19.4-18.4-29.1-.9-1.4-1.5-2.9-2.6-5h10.5c15,.2,30.1-.9,44.9.9,27.4,3.3,47.6,18.7,63.2,41.2,26.6,38.3,53.7,76.2,80.6,114.3,8.1,11.4,16.3,22.7,24.5,34.1.9,1.2,1.8,2.4,2.4,3.8,2.8,5.5.3,9.8-5.8,9.8-21.3.1-42.7.1-64,.1H125.9c-3.5.2-6-.9-6.1-4.9,0-3.9,2.4-5,6-5h67.7Z"/>
  <path className="cls-1" d="M434.4,289.2c8-5.5,16.5-10,23.4-16.4,20.5-19,28.5-42.9,22.2-70.2-6.1-26.2-24.1-42.2-49.3-50.3-5.3-1.7-11.1-2.3-16.7-2.4-42.2-.2-84.3-.1-126.5,0-3.6,0-5.6-.9-7.5-4.1-4.9-8.5-10.5-16.6-15.3-25.1-1.5-2.7-2.4-6.8-1.6-9.6,1-3.6,5.1-4.1,8.8-4.1,48.2,0,96.3-.4,144.5.3,20.5.3,39.6,7.1,56.5,18.8,21.5,14.9,37.3,34.5,45.7,59.5,7.5,22.2,7.5,44.6.7,66.8-9,29.6-26.7,52.6-53.7,68-1.2.7-3.9.8-4.6,0-9.2-10.5-18.1-21.2-26.7-31.3h.1Z"/>
  <path className="cls-1" d="M243.1,242.7c8.8,13.6,17.3,26.4,25.3,39.4,1.1,1.7.8,5.1,0,7.1-6.2,14.4-12.7,28.5-19.1,42.8-.7,1.6-1.1,3.4-1.9,5.8,2.6.1,4.5.3,6.4.3,15.5,0,31,0,46.5-.2,3,0,4.7.8,6.4,3.5,7,11.1,14.3,22.1,21.4,33.1,1,1.5,1.7,3.1,3.1,5.7h-6.2c-25.6,0-51.3-.1-76.9.1-3.1,0-6.4,1.2-9.1,2.9-12.5,7.6-25.6,8.9-38.5,2.3-13-6.6-20.1-17.9-19.4-32.8.8-15.5,8.3-26.9,22.8-33.6,2.4-1.1,4.9-3.5,6-5.8,10.6-22.2,20.9-44.5,31.3-66.8.5-1,1.1-2,1.9-3.7h0ZM216.8,370c9.7,0,17.4-7.6,17.4-17.3s-7.4-16.9-16.2-16.9-18,8-17.9,17.7c0,9,7.6,16.4,16.7,16.5h0Z"/>
</svg>