<?xml version="1.0" encoding="UTF-8" standalone="no"?>
<svg
   id="svg"
   width="400"
   height="315.1693667157585"
   viewBox="0, 0, 400,315.1693667157585"
   version="1.1"
   sodipodi:docname="white_retractenhanced copy.svg"
   inkscape:version="1.4 (e7c3feb1, 2024-10-09)"
   xmlns:inkscape="http://www.inkscape.org/namespaces/inkscape"
   xmlns:sodipodi="http://sodipodi.sourceforge.net/DTD/sodipodi-0.dtd"
   xmlns="http://www.w3.org/2000/svg"
   xmlns:svg="http://www.w3.org/2000/svg">
  <defs
     id="defs1" />
  <sodipodi:namedview
     id="namedview1"
     pagecolor="#ffffff"
     bordercolor="#000000"
     borderopacity="0.25"
     inkscape:showpageshadow="2"
     inkscape:pageopacity="0.0"
     inkscape:pagecheckerboard="0"
     inkscape:deskcolor="#d1d1d1"
     inkscape:zoom="1.3560825"
     inkscape:cx="216.06355"
     inkscape:cy="173.29329"
     inkscape:window-width="1456"
     inkscape:window-height="795"
     inkscape:window-x="7"
     inkscape:window-y="37"
     inkscape:window-maximized="0"
     inkscape:current-layer="svg" />
  <g
     id="svgg">
    <path
       id="path0"
       d="M154.712 0.359 C 151.784 1.130,150.908 2.314,150.908 5.498 C 150.908 9.168,151.288 9.963,158.808 22.018 C 161.393 26.162,163.890 30.211,164.357 31.015 C 165.384 32.782,166.523 34.055,167.591 34.626 L 168.385 35.052 223.368 35.163 C 273.900 35.265,278.540 35.301,280.689 35.610 C 293.359 37.435,307.731 44.940,315.904 54.001 C 332.064 71.916,334.861 100.117,322.525 120.750 C 316.113 131.473,310.592 136.594,293.870 147.324 C 291.856 148.617,291.232 149.111,291.350 149.322 C 291.808 150.136,312.144 173.915,312.984 174.620 C 314.455 175.852,315.750 175.471,320.797 172.319 C 341.455 159.421,356.117 138.716,362.170 113.893 C 371.493 75.664,355.400 37.041,320.668 14.288 C 306.374 4.924,293.217 0.856,275.601 0.354 C 261.624 -0.044,156.226 -0.040,154.712 0.359 M138.635 6.809 C 117.237 10.596,92.661 21.118,73.990 34.486 C 72.726 35.391,71.635 36.132,71.565 36.132 C 71.392 36.132,66.694 39.828,63.230 42.690 C 17.781 80.237,-5.365 135.714,0.996 191.851 C 7.773 251.654,52.099 301.275,106.330 309.766 C 114.498 311.045,128.130 311.432,135.493 310.594 C 145.250 309.484,152.861 307.863,159.064 305.573 C 160.842 304.917,164.242 303.661,166.618 302.783 C 189.439 294.347,206.233 282.005,222.572 261.659 C 227.897 255.028,227.903 254.957,223.672 248.797 C 222.523 247.123,220.084 243.456,218.254 240.648 C 212.225 231.399,208.352 225.626,208.174 225.626 C 208.079 225.626,207.621 226.134,207.159 226.755 C 206.345 227.847,203.931 230.909,197.490 239.020 C 176.316 265.683,149.454 278.283,118.900 275.885 C 91.221 273.713,68.767 260.048,52.575 235.523 C 28.075 198.413,26.820 157.009,48.861 112.980 C 69.575 71.600,106.750 45.718,156.265 38.200 C 158.696 37.831,160.755 37.458,160.843 37.370 C 161.003 37.210,160.440 36.250,152.464 23.073 C 144.010 9.105,143.165 7.814,142.166 7.332 C 141.281 6.904,139.547 6.648,138.635 6.809 M117.624 67.255 C 102.418 70.343,101.411 90.720,116.249 95.059 C 117.573 95.446,118.337 95.501,123.810 95.609 L 129.897 95.729 130.977 96.260 C 132.726 97.120,133.402 98.015,139.767 107.904 C 143.103 113.088,150.457 124.487,156.109 133.235 C 167.353 150.639,174.404 161.599,181.439 172.607 C 183.958 176.549,186.788 180.967,187.727 182.425 C 188.666 183.883,194.603 193.162,200.921 203.044 C 227.731 244.980,244.528 271.174,246.507 274.129 C 254.817 286.539,264.464 295.291,276.485 301.326 C 287.353 306.782,291.382 308.172,298.675 308.981 C 301.321 309.274,350.515 309.453,350.515 309.170 C 350.515 309.110,350.130 308.469,349.660 307.746 C 349.189 307.023,348.656 306.166,348.474 305.842 C 348.293 305.518,347.887 304.855,347.572 304.369 C 347.256 303.883,346.682 302.955,346.294 302.307 C 345.907 301.659,345.230 300.555,344.790 299.853 C 344.350 299.151,343.323 297.472,342.508 296.122 C 340.214 292.320,336.819 287.205,333.516 282.570 C 328.315 275.273,328.230 275.219,323.167 276.085 C 305.510 279.103,288.297 272.308,277.673 258.125 C 276.021 255.919,262.872 235.751,237.473 196.465 C 218.234 166.708,214.801 161.370,206.223 147.865 C 192.186 125.767,186.473 116.869,181.296 109.044 C 178.691 105.105,178.378 103.601,179.480 100.311 C 180.961 95.891,182.617 93.563,184.913 92.675 L 186.058 92.233 204.026 92.213 C 220.423 92.196,222.088 92.165,223.073 91.857 C 234.962 88.146,234.472 72.016,222.339 67.675 L 220.619 67.059 169.759 67.028 C 128.314 67.002,118.664 67.044,117.624 67.255 M133.893 112.667 C 133.499 113.395,130.463 119.823,127.146 126.951 C 119.337 143.733,112.621 158.072,111.903 159.499 L 111.335 160.628 109.423 160.631 C 107.035 160.634,106.656 160.732,106.500 161.388 C 106.432 161.672,106.312 161.993,106.234 162.101 C 106.155 162.209,105.977 163.049,105.839 163.967 C 105.701 164.885,105.531 165.680,105.461 165.734 C 105.391 165.788,105.218 166.539,105.077 167.403 C 104.935 168.267,104.740 169.123,104.643 169.305 C 104.547 169.487,104.467 169.862,104.467 170.139 C 104.467 170.543,104.372 170.643,103.988 170.643 C 103.724 170.643,103.458 170.725,103.396 170.826 C 103.333 170.927,102.798 171.118,102.206 171.250 C 101.614 171.383,101.129 171.554,101.129 171.631 C 101.129 171.707,100.731 171.882,100.245 172.018 C 99.759 172.154,99.362 172.335,99.362 172.420 C 99.362 172.506,99.096 172.634,98.771 172.705 C 98.446 172.777,98.059 172.956,97.911 173.104 C 97.417 173.597,96.731 173.639,96.232 173.207 C 95.976 172.985,95.652 172.803,95.512 172.803 C 95.372 172.803,95.187 172.687,95.101 172.546 C 95.014 172.405,94.656 172.173,94.305 172.031 C 93.954 171.890,93.667 171.707,93.667 171.625 C 93.667 171.543,93.402 171.366,93.078 171.232 C 92.754 171.098,92.489 170.921,92.489 170.839 C 92.489 170.758,92.224 170.581,91.900 170.447 C 91.576 170.313,91.311 170.125,91.311 170.030 C 91.311 169.935,91.200 169.856,91.065 169.854 C 90.841 169.851,89.381 168.964,88.815 168.487 C 88.356 168.100,88.460 168.007,81.836 174.738 C 79.505 177.106,79.347 177.474,80.188 178.577 C 80.442 178.912,80.713 179.384,80.790 179.627 C 80.867 179.870,81.001 180.069,81.089 180.069 C 81.177 180.069,81.358 180.334,81.492 180.658 C 81.627 180.982,81.803 181.247,81.885 181.247 C 81.967 181.247,82.144 181.512,82.278 181.836 C 82.412 182.160,82.589 182.425,82.671 182.425 C 82.752 182.425,82.935 182.712,83.077 183.063 C 83.219 183.414,83.450 183.772,83.592 183.859 C 83.733 183.945,83.849 184.144,83.849 184.300 C 83.849 184.457,83.942 184.585,84.057 184.585 C 84.171 184.585,84.216 184.664,84.157 184.759 C 84.098 184.855,84.181 185.043,84.342 185.176 C 84.664 185.444,84.734 186.072,84.459 186.241 C 84.232 186.382,83.131 188.664,82.958 189.354 C 82.885 189.647,82.755 189.887,82.671 189.887 C 82.587 189.887,82.457 190.218,82.382 190.623 C 82.307 191.028,82.126 191.625,81.980 191.949 C 81.835 192.273,81.687 192.715,81.651 192.931 C 81.605 193.213,81.408 193.341,80.951 193.385 C 80.601 193.419,80.314 193.517,80.314 193.602 C 80.314 193.688,79.519 193.871,78.547 194.011 C 77.575 194.150,76.780 194.327,76.780 194.404 C 76.780 194.480,75.984 194.657,75.012 194.796 C 74.040 194.936,73.245 195.125,73.245 195.217 C 73.245 195.310,73.062 195.385,72.839 195.385 C 71.644 195.385,71.674 195.219,71.674 201.833 C 71.674 208.107,71.704 208.346,72.499 208.346 C 72.693 208.346,72.852 208.421,72.852 208.513 C 72.852 208.606,73.648 208.795,74.620 208.935 C 75.592 209.074,76.387 209.247,76.387 209.318 C 76.387 209.390,77.182 209.561,78.154 209.699 C 79.126 209.836,79.921 210.025,79.921 210.117 C 79.921 210.210,80.253 210.313,80.658 210.347 C 81.339 210.403,81.408 210.467,81.582 211.193 C 81.685 211.625,81.827 212.023,81.897 212.077 C 81.968 212.131,82.143 212.639,82.287 213.206 C 82.431 213.773,82.601 214.237,82.665 214.237 C 82.729 214.237,82.899 214.634,83.042 215.120 C 83.186 215.606,83.382 216.004,83.478 216.004 C 83.574 216.004,83.652 216.124,83.652 216.271 C 83.652 216.418,83.873 216.864,84.143 217.262 C 84.737 218.136,84.750 218.363,84.242 218.949 C 84.026 219.198,83.849 219.517,83.849 219.657 C 83.849 219.797,83.738 219.982,83.603 220.069 C 83.468 220.155,83.225 220.491,83.063 220.815 C 82.902 221.139,82.723 221.448,82.666 221.502 C 82.408 221.748,81.802 222.794,81.841 222.926 C 81.865 223.007,81.797 223.073,81.689 223.073 C 81.581 223.073,81.492 223.158,81.492 223.261 C 81.492 223.434,80.744 224.663,80.344 225.147 C 79.189 226.544,79.278 226.699,83.870 231.296 C 87.878 235.307,89.151 236.265,89.151 235.272 C 89.151 235.177,89.416 234.989,89.740 234.855 C 90.064 234.721,90.329 234.544,90.329 234.462 C 90.329 234.381,90.612 234.196,90.959 234.053 C 91.305 233.909,91.747 233.634,91.941 233.440 C 92.134 233.246,92.425 233.088,92.587 233.088 C 92.749 233.088,92.882 233.010,92.882 232.915 C 92.882 232.820,93.147 232.633,93.471 232.499 C 93.795 232.365,94.060 232.188,94.060 232.106 C 94.060 232.024,94.325 231.848,94.649 231.713 C 94.973 231.579,95.238 231.402,95.238 231.321 C 95.238 231.239,95.525 231.056,95.876 230.914 C 96.227 230.772,96.563 230.586,96.621 230.502 C 96.725 230.353,98.377 231.059,98.576 231.337 C 98.630 231.412,99.050 231.586,99.509 231.723 C 99.968 231.860,100.344 232.037,100.344 232.118 C 100.344 232.198,100.785 232.369,101.325 232.499 C 101.865 232.628,102.307 232.814,102.307 232.911 C 102.307 233.008,102.462 233.088,102.651 233.089 C 103.520 233.092,104.467 233.506,104.467 233.883 C 104.467 234.094,104.545 234.266,104.639 234.266 C 104.733 234.266,104.926 235.106,105.067 236.132 C 105.207 237.158,105.386 237.997,105.464 237.997 C 105.541 237.997,105.717 238.748,105.853 239.666 C 105.990 240.584,106.176 241.335,106.266 241.335 C 106.357 241.335,106.431 241.593,106.431 241.908 C 106.431 243.171,106.056 243.103,112.946 243.103 C 120.161 243.103,119.590 243.270,119.957 241.041 C 120.099 240.177,120.284 239.381,120.367 239.273 C 120.450 239.165,120.634 238.348,120.775 237.457 C 120.917 236.566,121.097 235.837,121.175 235.837 C 121.253 235.837,121.378 235.309,121.453 234.663 C 121.595 233.440,122.016 233.093,123.368 233.089 C 123.557 233.088,123.711 233.008,123.711 232.911 C 123.711 232.814,124.153 232.628,124.693 232.499 C 125.233 232.369,125.675 232.195,125.675 232.112 C 125.675 232.029,126.073 231.849,126.559 231.713 C 127.045 231.577,127.442 231.396,127.442 231.310 C 127.442 231.225,127.752 231.053,128.130 230.928 C 128.508 230.803,128.817 230.619,128.817 230.520 C 128.817 230.420,128.949 230.339,129.111 230.339 C 129.273 230.339,129.406 230.416,129.406 230.511 C 129.406 230.606,129.671 230.794,129.995 230.928 C 130.319 231.062,130.584 231.243,130.584 231.329 C 130.584 231.416,130.893 231.589,131.271 231.713 C 131.649 231.838,131.959 232.011,131.959 232.097 C 131.959 232.184,132.224 232.365,132.548 232.499 C 132.872 232.633,133.137 232.810,133.137 232.892 C 133.137 232.973,133.402 233.150,133.726 233.284 C 134.050 233.418,134.315 233.606,134.315 233.701 C 134.315 233.796,134.448 233.873,134.610 233.873 C 134.772 233.873,135.063 234.032,135.256 234.225 C 135.450 234.419,135.892 234.695,136.238 234.838 C 136.585 234.982,136.868 235.177,136.868 235.272 C 136.868 235.367,137.132 235.444,137.455 235.444 C 138.259 235.444,146.490 227.308,146.490 226.514 C 146.490 226.241,146.412 226.019,146.317 226.019 C 146.222 226.019,146.035 225.754,145.901 225.430 C 145.767 225.106,145.593 224.840,145.516 224.840 C 145.391 224.840,144.919 223.980,144.919 223.751 C 144.919 223.702,158.837 223.662,175.847 223.662 C 192.857 223.662,206.775 223.604,206.775 223.532 C 206.775 223.028,204.001 218.405,200.196 212.568 C 193.525 202.333,191.239 198.802,188.756 194.894 C 184.591 188.341,187.788 189.066,163.194 189.093 L 143.009 189.115 142.748 188.470 C 142.604 188.116,142.432 187.781,142.366 187.727 C 142.300 187.673,142.122 187.320,141.971 186.942 C 141.821 186.564,141.570 186.158,141.414 186.039 C 141.177 185.860,141.263 185.645,141.945 184.722 C 142.393 184.116,142.759 183.532,142.759 183.425 C 142.759 183.318,142.875 183.159,143.016 183.073 C 143.157 182.987,143.389 182.629,143.531 182.278 C 143.672 181.927,143.860 181.640,143.948 181.640 C 144.035 181.640,144.170 181.441,144.247 181.198 C 144.324 180.955,144.595 180.483,144.849 180.148 C 145.104 179.814,145.312 179.439,145.312 179.314 C 145.312 179.189,145.402 179.087,145.513 179.087 C 145.624 179.087,145.798 178.866,145.901 178.596 C 146.003 178.326,146.178 178.105,146.289 178.105 C 146.942 178.105,146.434 176.896,145.314 175.783 L 144.139 174.614 145.337 171.990 C 152.366 156.605,155.807 148.500,155.997 146.883 C 156.313 144.202,155.877 143.457,137.811 115.775 C 134.543 110.766,134.808 110.976,133.893 112.667 M225.282 148.012 C 215.342 148.059,214.237 148.095,214.237 148.376 C 214.237 148.999,215.931 151.918,219.103 156.763 C 225.926 167.183,227.932 170.373,231.226 176.043 C 234.411 181.526,237.040 182.748,245.164 182.521 C 259.607 182.118,270.250 186.951,279.329 198.036 C 283.759 203.444,347.697 292.944,351.295 298.773 C 352.629 300.933,353.914 303.009,354.152 303.387 C 354.787 304.398,355.993 306.331,356.970 307.904 L 357.828 309.286 376.312 309.233 L 394.796 309.180 396.026 308.612 C 399.309 307.096,399.576 304.067,396.560 302.545 C 396.162 302.344,394.813 300.646,392.447 297.367 C 384.479 286.324,378.460 277.897,369.483 265.218 C 364.274 257.860,356.035 246.230,351.174 239.372 C 337.847 220.572,327.744 206.233,318.310 192.734 C 306.819 176.290,305.137 174.120,299.760 168.803 C 284.017 153.237,268.173 147.622,240.808 147.912 C 238.344 147.938,231.357 147.983,225.282 148.012 M116.898 187.654 C 128.514 190.286,131.175 206.105,121.125 212.786 C 109.294 220.651,94.552 207.736,101.262 195.385 C 104.373 189.658,111.088 186.338,116.898 187.654 "
       stroke="none"
       fill="#000000"
       fill-rule="evenodd" />
  </g>
  <path
     style="fill:#f9f9f9;stroke:#0000ff;stroke-width:0.00363411"
     d="m 352.74373,300.21354 c -12.62745,-19.53553 -69.88266,-99.0494 -76.05705,-105.62514 -8.16372,-8.69438 -18.98721,-12.83376 -33.60794,-12.85315 -4.30571,-0.006 -5.99746,-0.46935 -7.92054,-2.1707 -3.27524,-2.89759 -19.86006,-29.61591 -19.12335,-30.80792 0.36659,-0.59317 8.42684,-0.74202 21.83842,-0.40332 17.05182,0.43065 22.85289,0.93512 29.3221,2.54993 14.60575,3.6458 28.46562,12.77043 38.21496,25.1588 2.66052,3.38069 17.32557,23.88682 32.589,45.56918 39.26888,55.78316 57.17879,80.64829 58.72959,81.53691 1.91447,1.09701 1.65764,3.3213 -0.51794,4.48563 -1.09765,0.58745 -9.27405,0.98624 -19.95161,0.97311 l -18.09178,-0.0222 z"
     id="path1" />
  <path
     style="fill:#f9f9f9;stroke:#0000ff;stroke-width:0.00363411"
     d="m 305.12577,164.639 c -4.84644,-5.67294 -9.72241,-11.47491 -10.83549,-12.89324 l -2.02377,-2.57881 8.63881,-5.91683 c 15.91529,-10.9006 25.19883,-23.61902 28.41232,-38.9248 1.81862,-8.662001 1.80809,-15.157277 -0.0391,-24.099936 C 325.47126,61.79316 315.04567,48.714074 297.4764,40.329034 285.94368,34.824976 283.66631,34.649856 223.38253,34.63155 175.35428,34.61696 168.21819,34.42906 166.9343,33.145176 165.34482,31.555695 156.13637,16.917582 153.4422,11.697597 151.39828,7.7374834 151.17234,2.9866092 152.97369,1.8461794 154.90065,0.62623086 279.71022,0.73379971 287.49556,1.962119 c 17.95393,2.8326512 33.78411,11.275717 48.64419,25.944498 14.87864,14.687097 23.3575,30.667847 26.82685,50.562566 1.72063,9.866835 1.8156,15.883126 0.41025,25.987297 -3.31004,23.79833 -16.15359,46.63837 -34.36302,61.10874 -5.82515,4.62904 -13.50372,9.512 -14.79768,9.41016 -0.15327,-0.0121 -4.24396,-4.66343 -9.09041,-10.33638 z"
     id="path2" />
  <path
     style="fill:#f9f9f9;stroke:#0000ff;stroke-width:0.00363411"
     d="M 293.26849,307.59199 C 286.63602,306.2934 270.41513,297.78252 263.14772,291.78803 254.8288,284.92619 250.68227,279.5286 235.32399,255.56954 175.82115,162.74459 135.32169,99.898881 133.77378,97.987296 c -1.61505,-1.994505 -2.93171,-2.363898 -10.12946,-2.841838 -6.161,-0.4091 -8.93152,-1.040916 -10.85207,-2.474818 -8.77639,-6.552516 -8.74417,-16.314013 0.0756,-22.900759 2.59438,-1.937532 3.84203,-1.988452 55.05441,-2.246938 51.84672,-0.261687 52.43814,-0.242967 56.0256,1.773296 4.58732,2.578218 6.81785,6.332675 6.81785,11.47588 0,3.305965 -0.59018,4.624459 -3.26918,7.303454 l -3.26918,3.26918 h -19.11268 c -20.89737,0 -21.97535,0.25088 -24.83444,5.779762 -2.56535,4.960835 -1.82286,8.522555 3.50552,16.816045 2.71814,4.23071 13.39222,20.8891 23.72018,37.01866 35.33743,55.18774 68.63894,106.24689 71.90931,110.25409 4.45643,5.46051 13.68827,11.4309 21.39754,13.8382 4.92886,1.53909 8.59742,1.95641 16.00931,1.82115 5.28838,-0.0965 10.13422,-0.1256 10.76855,-0.0646 0.63433,0.0609 3.07683,2.8151 5.42777,6.12033 4.37673,6.1533 16.01472,24.53753 16.01472,25.298 0,0.79763 -51.43947,0.21247 -55.76462,-0.63436 z"
     id="path3" />
  <path
     style="fill:#f9f9f9;stroke:#0000ff;stroke-width:0.00363411"
     d="m 106.15805,238.59048 c -0.74799,-4.67765 -1.03805,-5.05339 -5.49121,-7.11325 -3.632687,-1.68035 -3.689215,-1.67426 -8.017609,0.86234 l -4.359127,2.55462 -3.983453,-3.98345 -3.983455,-3.98346 2.282893,-4.17903 c 2.266324,-4.1487 2.27048,-4.21153 0.57253,-8.65755 -0.9407,-2.46319 -2.192438,-4.48094 -2.781638,-4.48389 -0.589201,-0.003 -2.693845,-0.45598 -4.676988,-1.00672 l -3.605714,-1.00136 v -5.68688 -5.68689 l 4.086476,-1.04606 c 2.247561,-0.57533 4.542903,-1.19506 5.100759,-1.37717 0.557855,-0.18211 1.611906,-2.14193 2.342335,-4.35515 1.244475,-3.7708 1.181776,-4.29182 -0.9963,-8.27897 l -2.324353,-4.25493 4.009239,-4.00924 4.009237,-4.00924 3.968476,2.62622 c 3.955749,2.61779 3.982064,2.62102 8.205652,1.00801 4.23778,-1.61842 4.57221,-2.07467 5.72451,-7.80978 0.4772,-2.37511 1.17433,-3.1345 3.08941,-3.36533 2.19515,-0.26459 3.43936,-2.35163 11.06892,-18.56705 4.72767,-10.04792 9.87851,-21.07387 11.44632,-24.5021 l 2.85055,-6.23316 7.77704,12.0023 c 4.27737,6.60126 9.0225,14.20794 10.54473,16.90372 3.22448,5.71037 3.36467,5.03024 -4.77505,23.16595 -4.00318,8.91931 -4.60313,10.94766 -3.50712,11.85727 1.09871,0.91184 0.85827,1.84265 -1.42252,5.50707 -2.23991,3.59874 -2.54238,4.73373 -1.6446,6.17131 1.00603,1.61091 2.78637,1.76732 20.82043,1.82912 10.84618,0.0372 20.46024,0.36169 21.36458,0.72115 0.90433,0.35946 6.23555,7.79287 11.84712,16.5187 l 10.20289,15.86514 -30.83723,0.2537 c -16.96047,0.13954 -30.83722,0.59386 -30.83722,1.0096 0,0.41574 0.43089,1.1868 0.95754,1.71344 0.6357,0.63571 -0.46117,2.3499 -3.26347,5.10016 l -4.22101,4.14261 -4.26806,-2.50125 c -4.24093,-2.48536 -4.29323,-2.49057 -8.23167,-0.82138 -3.51671,1.49047 -4.08772,2.19486 -5.06419,6.24712 l -1.10057,4.56724 h -6.14263 -6.14264 z m 15.09213,-25.39176 c 11.74755,-7.84788 6.64909,-26.0221 -7.30006,-26.0221 -11.17827,0 -18.525512,12.90794 -12.54371,22.03733 4.05598,6.1902 13.65659,8.11807 19.84377,3.98477 z"
     id="path4" />
  <path
     style="fill:#f9f9f9;stroke:#0000ff;stroke-width:0.00363411"
     d="m 112.49828,310.06651 c -0.79326,-0.15543 -4.6537,-0.80686 -8.57876,-1.44764 C 88.575877,306.11397 69.41347,297.61505 55.501158,287.14434 45.737315,279.79586 31.210049,264.44286 24.789608,254.68713 6.636593,227.10402 -1.4880849,195.52567 1.0196661,162.30002 4.920185,110.62133 32.197438,64.045541 76.231118,33.876781 91.887212,23.150332 111.77899,13.967872 128.7264,9.6438592 c 13.17255,-3.3608804 12.58825,-3.6849137 22.41228,12.4292388 4.66084,7.645081 8.47426,14.142379 8.47426,14.438441 0,0.296063 -4.86772,1.476121 -10.81714,2.622351 -15.06137,2.901757 -25.27454,6.270139 -38.70133,12.763993 -26.430865,12.783259 -47.12545,32.853166 -60.406241,58.582837 -23.303997,45.14823 -22.3381,87.96264 2.838061,125.80008 13.453328,20.2191 32.256545,33.48087 54.34382,38.32829 9.98984,2.19244 28.15264,2.20577 37.65703,0.0276 21.52513,-4.93292 38.24875,-16.48168 56.21709,-38.82161 3.93515,-4.89255 7.26213,-8.89553 7.39329,-8.89553 0.77902,0 17.82055,26.77588 17.82055,27.99988 0,2.22909 -14.25475,18.84718 -21.2703,24.79679 -17.44261,14.79236 -41.21543,25.93348 -62.81031,29.43603 -7.53414,1.22199 -25.02956,1.7664 -29.37918,0.91421 z"
     id="path5" />
  <path
     style="fill:#ffffff;stroke:#0000ff;stroke-width:0.00278709"
     d="M 115.77466,309.91261 C 97.73139,307.93956 81.839473,302.74098 66.736351,293.87113 57.888734,288.67506 52.583415,284.58045 44.581055,276.77183 32.142126,264.63405 24.977009,255.27754 17.751611,241.73679 -3.2827082,202.31747 -4.4871658,154.49853 14.41771,109.3755 27.677206,77.727117 52.662219,48.914842 83.357663,29.87516 97.814917,20.907657 121.33251,11.17861 134.34367,8.782645 c 6.03993,-1.1122358 7.30487,-0.4769269 11.50746,5.779557 4.21231,6.27095 12.69379,20.567608 12.69379,21.397062 0,0.395669 -3.56726,1.451152 -7.92724,2.345518 -17.98049,3.688346 -28.48469,7.198806 -42.47881,14.196248 -28.418567,14.210063 -49.553943,36.480295 -62.845369,66.21983 -18.944868,42.38909 -16.617738,82.28955 6.855896,117.5497 13.083295,19.65265 30.611849,32.48751 51.944073,38.03482 7.81602,2.0325 25.34162,2.81141 34.80996,1.54709 22.84372,-3.05033 40.96676,-14.57845 61.82263,-39.32557 4.01622,-4.76556 7.40399,-8.66466 7.52836,-8.66466 0.34347,0 5.25379,7.44166 11.62223,17.61369 6.38366,10.19634 6.31428,9.46293 1.47299,15.57013 -9.95802,12.56187 -20.16432,21.84638 -32.26675,29.35255 -15.47738,9.59937 -34.0359,16.56437 -49.34213,18.51806 -5.95961,0.76068 -20.56646,1.36769 -23.9661,0.99594 z"
     id="path26" />
  <path
     style="fill:#ffffff;stroke:#0000ff;stroke-width:0.00278709"
     d="m 106.53612,238.73916 c -0.72776,-4.39328 -1.46283,-5.50142 -4.76768,-7.18742 -3.829979,-1.95391 -5.36235,-1.86684 -9.65982,0.54889 l -3.604404,2.02613 -3.766835,-3.76683 -3.766835,-3.76684 1.916277,-3.59971 c 2.298843,-4.31837 2.336798,-5.08911 0.465583,-9.45447 -1.489287,-3.47436 -2.268035,-4.01719 -7.95139,-5.54248 l -3.134028,-0.8411 v -5.40028 -5.40027 l 4.395917,-0.93288 c 5.142799,-1.09137 6.244761,-2.09943 7.524161,-6.88296 0.902958,-3.37606 0.848391,-3.72718 -1.181869,-7.60492 l -2.128534,-4.06545 3.67971,-3.67971 3.679709,-3.67971 3.779349,2.34937 c 4.203415,2.61299 6.695212,2.61819 10.949609,0.0229 1.80031,-1.09826 2.50809,-2.24397 3.22031,-5.21286 0.77948,-3.24923 1.29321,-3.98603 3.51594,-5.04264 2.35002,-1.11711 3.26043,-2.59946 9.36502,-15.24835 3.71907,-7.70602 8.71306,-18.24188 11.09775,-23.41303 2.38468,-5.17114 4.51948,-9.39504 4.74399,-9.38644 0.50902,0.0195 15.15694,23.02968 17.94752,28.19346 2.54811,4.71511 2.48779,5.03249 -3.63176,19.10817 -5.08591,11.69819 -6.05043,14.89109 -4.74254,15.69942 0.56969,0.35208 0.12663,1.75013 -1.40054,4.41935 -2.53617,4.43276 -2.814,6.68951 -0.94336,7.66264 0.70976,0.36923 10.25011,0.90352 21.20077,1.1873 17.56018,0.45508 20.06731,0.66889 21.24054,1.81148 1.7802,1.7337 20.36571,29.85096 19.98796,30.23898 -0.16313,0.16757 -13.71396,0.50381 -30.11297,0.7472 -16.39899,0.24339 -30.05281,0.67899 -30.34182,0.968 -0.289,0.289 -0.13667,0.99392 0.33852,1.56648 0.69406,0.8363 0.12742,1.84693 -2.88131,5.13896 l -3.74529,4.09795 -3.80414,-2.24301 c -4.24219,-2.50128 -7.49705,-2.51765 -10.79647,-0.0543 -2.22287,1.65962 -2.77967,2.63626 -3.77357,6.61901 l -0.7821,3.13402 h -5.8061 -5.80611 z m 13.73794,-24.58005 c 2.97191,-1.5025 6.41295,-5.86519 7.33916,-9.30487 1.5806,-5.86992 -0.70608,-12.04868 -5.78772,-15.63875 -3.89872,-2.75437 -10.01978,-3.06719 -14.49185,-0.7406 -7.831279,4.0742 -10.748545,14.11976 -6.10254,21.01397 3.83658,5.6931 12.71362,7.87018 19.04295,4.67025 z"
     id="path27" />
  <path
     style="fill:#ffffff;stroke:#0000ff;stroke-width:0.00278709"
     d="m 299.39181,307.50985 c -6.06026,-0.38787 -8.78453,-0.94001 -12.53611,-2.54078 -11.93156,-5.09106 -23.19785,-12.55095 -29.9195,-19.81095 -6.27018,-6.77236 -10.84397,-13.63312 -56.87802,-85.31778 -53.89469,-83.92532 -65.07583,-101.183889 -66.56455,-102.745178 -0.95897,-1.005723 -3.36152,-1.58828 -9.41749,-2.283502 -9.45874,-1.085856 -12.48253,-2.541569 -15.31347,-7.372207 -3.28212,-5.600516 -2.32658,-10.85298 2.88585,-15.862985 2.56596,-2.466309 2.84861,-2.548861 10.57113,-3.087385 12.81644,-0.893745 95.23571,-0.763808 98.5461,0.155362 1.57227,0.436557 4.20242,2.047181 5.84479,3.579162 2.74429,2.55985 3.01265,3.152157 3.31368,7.313972 0.312,4.313287 0.20259,4.681075 -2.30175,7.737291 l -2.62933,3.20874 -19.0288,0.389411 c -22.32006,0.456763 -23.4288,0.715271 -26.0193,6.066505 -2.01022,4.152564 -1.7536,7.635634 0.94082,12.769734 2.63365,5.0183 62.73823,98.46375 86.49503,134.47506 12.52417,18.98454 14.54583,21.29832 23.22554,26.58144 8.07103,4.91265 12.10811,5.90983 25.56838,6.31558 l 11.98978,0.36141 2.09179,2.67857 c 4.29724,5.5027 17.80503,26.48917 17.80503,27.6629 0,0.59025 -38.55677,0.37289 -48.6696,-0.27437 z"
     id="path28" />
  <path
     style="fill:#ffffff;stroke:#0000ff;stroke-width:0.00278709"
     d="m 303.61828,162.05663 -10.69904,-12.66857 6.73902,-4.73995 c 9.57877,-6.73731 14.4933,-11.16756 19.16321,-17.27486 13.80839,-18.05856 15.89109,-41.407221 5.55568,-62.283484 -5.12469,-10.351238 -13.77563,-18.519411 -26.27624,-24.809869 -10.32438,-5.195359 -7.73351,-4.98057 -72.08222,-5.975779 -32.04082,-0.49554 -58.34651,-0.950328 -58.45709,-1.010639 -0.11057,-0.06031 -2.31582,-3.34508 -4.90053,-7.299486 -8.89986,-13.616056 -11.83401,-20.3384143 -10.05828,-23.04432 0.6331,-0.96474 8.19932,-1.1339843 59.19344,-1.3240626 65.40519,-0.2437949 76.61006,0.1695031 86.12074,3.17661 16.35565,5.1713636 32.00235,15.8213156 43.76191,29.7866276 24.83836,29.497288 28.91629,67.048162 10.99512,101.246842 -6.68473,12.75639 -18.29541,25.84949 -29.76156,33.56146 -9.29325,6.25051 -7.11672,7.07858 -19.29416,-7.34052 z"
     id="path29" />
  <path
     style="fill:#ffffff;stroke:#0000ff;stroke-width:0.00278709"
     d="m 350.8569,296.62649 c -13.9531,-20.79034 -49.97481,-71.11694 -66.80552,-93.33523 -12.52249,-16.53099 -19.35832,-20.40888 -38.40196,-21.78505 -6.45706,-0.4666 -8.51258,-0.88894 -9.76048,-2.0054 -2.92636,-2.61814 -19.08798,-27.90313 -19.08798,-29.86331 0,-1.14318 8.14202,-1.36867 25.09401,-0.69497 15.09374,0.59985 19.25331,1.01434 25.12372,2.50349 11.21743,2.84554 22.01546,8.87771 31.09137,17.36877 5.29411,4.95296 9.35226,10.4535 47.37183,64.20938 31.3853,44.37567 47.33248,66.46365 50.24895,69.59841 1.52074,1.63457 1.80304,2.40001 1.22384,3.31839 -1.14534,1.81602 -5.0648,2.21105 -22.39737,2.25736 l -15.90564,0.0425 z"
     id="path30" />
</svg>
