<?xml version="1.0" encoding="UTF-8"?>
<svg version="1.1" xmlns="http://www.w3.org/2000/svg" width="256" height="256">
<path d="M0 0 C1.49637497 -0.00461494 1.49637497 -0.00461494 3.02297974 -0.00932312 C4.09804779 -0.0021376 5.17311584 0.00504791 6.28076172 0.01245117 C7.93554031 0.0131385 7.93554031 0.0131385 9.62374878 0.01383972 C11.955557 0.01686151 14.28736322 0.02474559 16.61914062 0.03710938 C20.20303432 0.05538212 23.78667003 0.05761896 27.37060547 0.05737305 C29.63232647 0.06228753 31.89404571 0.06811554 34.15576172 0.07495117 C35.23487823 0.076064 36.31399475 0.07717682 37.42581177 0.07832336 C38.41709076 0.08470322 39.40836975 0.09108307 40.4296875 0.09765625 C41.3066629 0.10146805 42.18363831 0.10527985 43.08718872 0.10920715 C45.08544922 0.24291992 45.08544922 0.24291992 46.08544922 1.24291992 C46.12608754 2.90909107 46.12817022 4.57680087 46.08544922 6.24291992 C45.09544922 6.57291992 44.10544922 6.90291992 43.08544922 7.24291992 C41.47280079 27.33191175 48.85576144 44.80076299 55.8633728 63.25332642 C56.1403299 63.98352997 56.41728699 64.71373352 56.70263672 65.46606445 C56.9461084 66.1014212 57.18958008 66.73677795 57.44042969 67.39138794 C58.11289792 69.32171155 58.6190516 71.25367488 59.08544922 73.24291992 C60.07544922 72.91291992 61.06544922 72.58291992 62.08544922 72.24291992 C79.25951833 71.15842902 93.83723756 74.00788726 107.21044922 85.43041992 C116.16392444 93.84168158 123.14827426 104.6961468 124.26245117 117.23486328 C124.75725971 134.17466305 122.29002109 147.41300543 110.98388672 160.71557617 C100.79801576 171.495323 88.49147129 177.19924578 73.64697266 177.71557617 C58.85857079 177.86967935 45.8437532 173.8468008 34.58154297 163.82885742 C22.78113123 151.31980477 18.54214845 137.71659181 18.80419922 120.90307617 C19.40477932 106.15583167 26.81706346 94.31822492 37.08544922 84.24291992 C43.01594249 79.24291992 43.01594249 79.24291992 46.08544922 79.24291992 C43.44544922 71.98291992 40.80544922 64.72291992 38.08544922 57.24291992 C33.98075406 58.61115164 32.67726293 61.40025684 30.39794922 64.86791992 C29.41850069 66.32563718 28.43796469 67.78262415 27.45654297 69.23901367 C26.9214209 70.03678223 26.38629883 70.83455078 25.83496094 71.65649414 C23.27491353 75.44119163 20.66249683 79.18865451 18.04858398 82.9362793 C16.65902046 84.9287506 15.27277396 86.92353943 13.88989258 88.9206543 C10.97413125 93.12875197 8.05269664 97.32245696 4.99169922 101.42651367 C4.33645264 102.31947144 4.33645264 102.31947144 3.66796875 103.23046875 C2.5572816 104.73661083 1.42769597 106.22876807 0.29638672 107.71948242 C-1.23655504 110.21447989 -1.23655504 110.21447989 -0.19580078 112.96166992 C0.58812541 114.35744094 1.38681928 115.74520337 2.21044922 117.11791992 C3.74017108 120.83295873 3.76883389 124.35196347 2.39794922 128.14526367 C0.78458137 131.32494281 -0.71257602 133.09261312 -3.60205078 135.24291992 C-7.98405446 136.56578896 -11.52578102 136.57898452 -15.91455078 135.24291992 C-19.11898508 132.72028015 -21.64666725 130.16183265 -22.91455078 126.24291992 C-23.36104051 119.99206376 -23.36104051 119.99206376 -21.75048828 117.28979492 C-20.62565262 115.2245046 -20.62565262 115.2245046 -21.81298828 113.10229492 C-22.30025391 112.40620117 -22.78751953 111.71010742 -23.28955078 110.99291992 C-23.77166016 110.28651367 -24.25376953 109.58010742 -24.75048828 108.85229492 C-25.13462891 108.32120117 -25.51876953 107.79010742 -25.91455078 107.24291992 C-27.39955078 107.73791992 -27.39955078 107.73791992 -28.91455078 108.24291992 C-28.58326172 109.34120117 -28.25197266 110.43948242 -27.91064453 111.57104492 C-24.85626461 123.87513691 -26.46446879 139.37520364 -32.91455078 150.24291992 C-33.40955078 151.10788086 -33.90455078 151.9728418 -34.41455078 152.86401367 C-42.05686918 164.93373288 -54.84523214 173.61738613 -68.73022461 176.86132812 C-81.11488426 179.02487155 -95.31507472 178.50565869 -105.83642578 171.21948242 C-108.64348659 168.99659373 -111.28735886 166.67442559 -113.91455078 164.24291992 C-114.57326172 163.67573242 -115.23197266 163.10854492 -115.91064453 162.52416992 C-125.25578194 154.03237468 -130.49646879 142.25535769 -131.22705078 129.78588867 C-131.79596445 114.07280911 -128.49146323 100.90998199 -117.82470703 88.88745117 C-114.72613226 85.71963451 -111.58919188 82.73832837 -107.91455078 80.24291992 C-107.25455078 80.24291992 -106.59455078 80.24291992 -105.91455078 80.24291992 C-105.91455078 79.58291992 -105.91455078 78.92291992 -105.91455078 78.24291992 C-103.99939288 77.42686994 -102.08236244 76.6152136 -100.16455078 75.80541992 C-99.09720703 75.35295898 -98.02986328 74.90049805 -96.93017578 74.43432617 C-84.83591891 69.65615474 -69.61868765 71.17788066 -57.91455078 76.24291992 C-51.61220789 79.21112012 -46.04789585 82.52579202 -40.91455078 87.24291992 C-39.95938394 84.71072538 -39.73745636 83.64193407 -40.85498047 81.12402344 C-41.34385742 80.38079834 -41.83273438 79.63757324 -42.33642578 78.87182617 C-43.13306641 77.63916016 -43.13306641 77.63916016 -43.94580078 76.3815918 C-44.51298828 75.53145508 -45.08017578 74.68131836 -45.66455078 73.80541992 C-46.7637513 72.11937987 -47.86271653 70.4331864 -48.96142578 68.74682617 C-49.73583008 67.57144287 -49.73583008 67.57144287 -50.52587891 66.37231445 C-52.05217631 64.03188444 -53.50698442 61.65659886 -54.91455078 59.24291992 C-55.63900391 59.34991211 -56.36345703 59.4569043 -57.10986328 59.56713867 C-67.05307546 60.80009698 -67.05307546 60.80009698 -71.91455078 57.24291992 C-75.46965055 53.87998771 -76.62875035 50.93267507 -77.02392578 46.17260742 C-76.80071941 42.23460926 -74.58500491 39.91337405 -71.91455078 37.24291992 C-68.05679058 35.78426432 -63.89320481 36.06281453 -59.82470703 36.03979492 C-59.04316757 36.03409485 -58.26162811 36.02839478 -57.45640564 36.02252197 C-55.80648138 36.01309448 -54.15653848 36.00654695 -52.5065918 36.00268555 C-49.98924885 35.99296701 -47.4727184 35.96191816 -44.95556641 35.93041992 C-43.34945144 35.92389039 -41.74333067 35.91863972 -40.13720703 35.91479492 C-39.38810562 35.90244812 -38.63900421 35.89010132 -37.86720276 35.87738037 C-32.93240858 35.89831418 -29.46834186 36.68912885 -25.91455078 40.24291992 C-25.44773156 45.61134097 -25.44773156 45.61134097 -27.04345703 47.77026367 C-31.04854828 50.92249624 -36.23061616 52.37941905 -40.91455078 54.24291992 C-38.27455078 58.53291992 -35.63455078 62.82291992 -32.91455078 67.24291992 C-11.50809144 58.75379973 9.78953792 50.00479052 31.08544922 41.24291992 C31.41544922 30.35291992 31.74544922 19.46291992 32.08544922 8.24291992 C27.87988281 8.26032227 27.87988281 8.26032227 23.58935547 8.27807617 C20.8854992 8.28586625 18.18164416 8.29194329 15.4777832 8.29785156 C13.59301192 8.30289236 11.70824457 8.3097249 9.82348633 8.31835938 C7.12043286 8.33043609 4.41743091 8.33615061 1.71435547 8.34057617 C0.86643936 8.34573746 0.01852325 8.35089874 -0.85508728 8.35621643 C-2.87526147 8.35641187 -4.89533012 8.30498203 -6.91455078 8.24291992 C-7.91455078 7.24291992 -7.91455078 7.24291992 -8.16455078 4.80541992 C-8.08205078 3.95979492 -7.99955078 3.11416992 -7.91455078 2.24291992 C-4.65928849 0.07274506 -3.76074582 -0.00609986 0 0 Z M31.08544922 52.24291992 C30.01174072 52.73695312 28.93803223 53.23098633 27.83178711 53.73999023 C23.81203473 55.58936698 19.79193217 57.43798143 15.77172852 59.28637695 C14.03856137 60.08337258 12.30548667 60.88056929 10.57250977 61.67797852 C8.06795705 62.83037565 5.56306226 63.98202643 3.05810547 65.13354492 C2.2952272 65.48475403 1.53234894 65.83596313 0.74635315 66.19781494 C0.00626511 66.5378656 -0.73382294 66.87791626 -1.49633789 67.22827148 C-2.57714882 67.72808281 -2.57714882 67.72808281 -3.67979431 68.23799133 C-5.24861269 68.9434599 -6.83047475 69.62028682 -8.4209137 70.27555847 C-9.63786171 70.78231865 -9.63786171 70.78231865 -10.87939453 71.29931641 C-11.98420166 71.74476051 -11.98420166 71.74476051 -13.11132812 72.19920349 C-15.27749227 73.22655962 -15.27749227 73.22655962 -16.44970703 76.44995117 C-16.62373047 77.63975586 -16.79775391 78.82956055 -16.97705078 80.05541992 C-17.17427734 81.23749023 -17.37150391 82.41956055 -17.57470703 83.63745117 C-17.68685547 84.82725586 -17.79900391 86.01706055 -17.91455078 87.24291992 C-18.02669922 88.39276367 -18.13884766 89.54260742 -18.25439453 90.72729492 C-17.80965014 95.32809892 -16.0311275 97.96770972 -13.41455078 101.68041992 C-12.98529297 102.31657227 -12.55603516 102.95272461 -12.11376953 103.6081543 C-11.06170211 105.16287615 -9.99007078 106.70432881 -8.91455078 108.24291992 C-6.40739531 107.86947084 -5.18747436 107.53405635 -3.42919922 105.65844727 C-2.96545898 104.97218262 -2.50171875 104.28591797 -2.02392578 103.57885742 C-1.48711182 102.79752441 -0.95029785 102.01619141 -0.3972168 101.21118164 C0.17456299 100.35540527 0.74634277 99.49962891 1.33544922 98.61791992 C2.5813643 96.79488114 3.82746564 94.97196963 5.07373047 93.14916992 C5.7255127 92.1875293 6.37729492 91.22588867 7.04882812 90.23510742 C10.49840973 85.16700959 14.01518208 80.14582923 17.52294922 75.11791992 C18.81360956 73.26135466 20.10398405 71.40459064 21.39404297 69.54760742 C24.94654392 64.43811707 28.51340013 59.33875843 32.08544922 54.24291992 C31.59044922 53.25291992 31.59044922 53.25291992 31.08544922 52.24291992 Z M-25.91455078 78.24291992 C-25.31271329 80.26337435 -24.64148982 82.26403031 -23.91455078 84.24291992 C-23.25455078 84.57291992 -22.59455078 84.90291992 -21.91455078 85.24291992 C-21.25455078 82.27291992 -20.59455078 79.30291992 -19.91455078 76.24291992 C-22.37733879 76.24291992 -23.76679197 77.09744855 -25.91455078 78.24291992 Z M-102.61376953 97.77416992 C-111.09701426 107.35284866 -113.66776268 118.98867227 -113.09375 131.33422852 C-112.7002852 135.52511109 -111.09849948 138.71710933 -108.91455078 142.24291992 C-108.51365234 142.99959961 -108.11275391 143.7562793 -107.69970703 144.53588867 C-103.39398472 151.98666033 -97.11886414 156.59873737 -88.92236328 159.18823242 C-78.42023885 161.3432138 -69.60353822 159.39692679 -60.42236328 154.00854492 C-52.34585477 148.32228037 -45.82220811 138.95462996 -43.91455078 129.24291992 C-43.4095018 123.82707555 -44.20161179 119.38173689 -45.91455078 114.24291992 C-52.89758289 115.2818066 -59.73346815 116.72114028 -65.91455078 120.24291992 C-67.2696996 122.90513162 -67.51495445 124.90559878 -67.73095703 127.86791992 C-67.91455078 130.24291992 -67.91455078 130.24291992 -69.47705078 133.24291992 C-73.00174463 136.13497641 -76.37582896 137.07453564 -80.91455078 137.24291992 C-84.5814825 136.49686472 -87.20569624 134.99903143 -89.78955078 132.24291992 C-92.06932655 128.18998522 -92.30316405 124.82855654 -91.91455078 120.24291992 C-90.1824228 116.84281685 -88.9893724 114.79824443 -85.57080078 113.03198242 C-82.6354707 112.16001672 -81.08195662 112.41890853 -78.10205078 112.93041992 C-69.06208999 113.26477464 -62.1394948 104.98287962 -55.91455078 99.24291992 C-61.53451312 92.98220179 -70.3534323 89.67324318 -78.70751953 89.17651367 C-87.17139177 89.43117885 -96.21031687 92.00370224 -102.61376953 97.77416992 Z M-36.91455078 90.24291992 C-37.24455078 90.90291992 -37.57455078 91.56291992 -37.91455078 92.24291992 C-36.9208728 94.27206837 -36.9208728 94.27206837 -35.47705078 96.36791992 C-35.00396484 97.09237305 -34.53087891 97.81682617 -34.04345703 98.56323242 C-33.67091797 99.1175293 -33.29837891 99.67182617 -32.91455078 100.24291992 C-32.25455078 99.91291992 -31.59455078 99.58291992 -30.91455078 99.24291992 C-31.97330152 95.83979254 -32.92357232 93.22938761 -34.91455078 90.24291992 C-35.57455078 90.24291992 -36.23455078 90.24291992 -36.91455078 90.24291992 Z M66.08544922 90.24291992 C66.75049915 95.22688233 68.08444927 99.72085066 69.77294922 104.43041992 C70.00433594 105.14133789 70.23572266 105.85225586 70.47412109 106.5847168 C71.85347159 110.41304466 72.56304616 111.90974436 76.10498047 114.16870117 C78.08997482 114.88413164 80.0837402 115.57568358 82.08544922 116.24291992 C84.58342616 121.76476368 84.9443289 126.76171195 82.96044922 132.49291992 C80.64102704 135.89473912 78.96310766 136.90065354 75.08544922 138.24291992 C70.31573865 138.66878694 66.44794061 138.27198569 62.08544922 136.24291992 C59.12362296 131.87070021 58.82232747 127.41764759 59.08544922 122.24291992 C59.49923828 121.40116211 59.91302734 120.5594043 60.33935547 119.69213867 C61.50130048 114.32042428 59.28316861 110.31829828 57.21044922 105.36791992 C56.62457031 103.90612305 56.62457031 103.90612305 56.02685547 102.41479492 C55.06297409 100.01684612 54.08228267 97.62731503 53.08544922 95.24291992 C45.72684346 99.86150886 39.92535042 105.98453689 37.52294922 114.52807617 C35.98705372 124.0588563 35.7215698 133.89538258 41.08544922 142.24291992 C41.70419922 143.26772461 41.70419922 143.26772461 42.33544922 144.31323242 C47.66568614 152.27830237 55.69719951 157.75358895 65.06201172 159.64135742 C75.75052222 161.3409439 85.30878994 158.41251556 94.08544922 152.24291992 C100.4969371 146.4856655 105.65046883 138.60560673 106.35888672 129.87182617 C106.72907666 119.37401883 105.27277663 110.57064827 98.83544922 101.86791992 C90.93674729 94.3282499 83.03352165 90.09096561 72.08544922 90.05541992 C70.0850424 90.1031569 68.08473284 90.16063233 66.08544922 90.24291992 Z M-58.03955078 106.24291992 C-59.12623047 107.07823242 -59.12623047 107.07823242 -60.23486328 107.93041992 C-60.78916016 108.36354492 -61.34345703 108.79666992 -61.91455078 109.24291992 C-58.2729427 110.45678928 -57.58289609 109.91038942 -54.22705078 108.30541992 C-53.41880859 107.92514648 -52.61056641 107.54487305 -51.77783203 107.15307617 C-51.16294922 106.85272461 -50.54806641 106.55237305 -49.91455078 106.24291992 C-50.57455078 105.25291992 -51.23455078 104.26291992 -51.91455078 103.24291992 C-54.72939123 103.24291992 -55.83664834 104.53744706 -58.03955078 106.24291992 Z M-3.91455078 115.24291992 C-5.55921818 117.70618704 -5.55921818 117.70618704 -6.91455078 120.24291992 C-4.93455078 120.24291992 -2.95455078 120.24291992 -0.91455078 120.24291992 C-1.24455078 118.59291992 -1.57455078 116.94291992 -1.91455078 115.24291992 C-2.57455078 115.24291992 -3.23455078 115.24291992 -3.91455078 115.24291992 Z M-18.91455078 116.24291992 C-18.91455078 117.56291992 -18.91455078 118.88291992 -18.91455078 120.24291992 C-17.59455078 119.91291992 -16.27455078 119.58291992 -14.91455078 119.24291992 C-16.23455078 118.25291992 -17.55455078 117.26291992 -18.91455078 116.24291992 Z M-19.91455078 122.24291992 C-19.91455078 123.56291992 -19.91455078 124.88291992 -19.91455078 126.24291992 C-18.59455078 126.90291992 -17.27455078 127.56291992 -15.91455078 128.24291992 C-14.35205269 126.93090819 -14.35205269 126.93090819 -12.91455078 125.24291992 C-12.91455078 124.25291992 -12.91455078 123.26291992 -12.91455078 122.24291992 C-15.22455078 122.24291992 -17.53455078 122.24291992 -19.91455078 122.24291992 Z M-6.91455078 122.24291992 C-6.71983968 124.19291121 -6.71983968 124.19291121 -5.91455078 126.24291992 C-3.93077408 127.52728726 -3.93077408 127.52728726 -1.91455078 128.24291992 C-0.92455078 127.25291992 0.06544922 126.26291992 1.08544922 125.24291992 C0.75544922 124.25291992 0.42544922 123.26291992 0.08544922 122.24291992 C-2.22455078 122.24291992 -4.53455078 122.24291992 -6.91455078 122.24291992 Z M-10.91455078 124.24291992 C-13.11593738 128.04719485 -13.11593738 128.04719485 -13.91455078 132.24291992 C-11.27455078 132.24291992 -8.63455078 132.24291992 -5.91455078 132.24291992 C-6.37861328 131.09823242 -6.37861328 131.09823242 -6.85205078 129.93041992 C-7.59348671 128.05502315 -8.27683295 126.15607341 -8.91455078 124.24291992 C-9.57455078 124.24291992 -10.23455078 124.24291992 -10.91455078 124.24291992 Z " fill="#000000" transform="translate(131.91455078125,36.757080078125)"/>
<path d="M0 0 C0 1.65 0 3.3 0 5 C-0.66 5 -1.32 5 -2 5 C-2 5.66 -2 6.32 -2 7 C-3.32 6.34 -4.64 5.68 -6 5 C-6 3.68 -6 2.36 -6 1 C-4 0 -4 0 0 0 Z " fill="#141414" transform="translate(121,150)"/>
<path d="M0 0 C2.97 0.495 2.97 0.495 6 1 C4.515 3.475 4.515 3.475 3 6 C2.01 5.67 1.02 5.34 0 5 C0 3.35 0 1.7 0 0 Z " fill="#141414" transform="translate(123,150)"/>
<path d="" fill="#000000" transform="translate(0,0)"/>
</svg>
